<svg xmlns="http://www.w3.org/2000/svg" width="32" height="32" viewBox="0 0 32 32" fill="none">
  <g clip-path="url(#clip0_2108_5388)">
    <path d="M31.7756 19.5606C31.6279 19.9374 31.3953 20.2751 31.0956 20.5473L31.0556 20.5872C30.5392 21.0713 29.8567 21.3385 29.1489 21.3339H25.3357C25.109 21.3335 24.8981 21.2181 24.7757 21.0272L24.1357 20.0006L21.4424 15.694C21.3379 15.5419 21.3084 15.3504 21.3624 15.174C21.4034 14.9927 21.5198 14.8374 21.6824 14.7473L27.6823 11.414C28.0069 11.2434 28.4084 11.3614 28.589 11.6807L31.6823 17.2006C32.0686 17.9327 32.1029 18.8003 31.7756 19.5606Z" fill="url(#paint0_linear_2108_5388)"/>
    <path d="M17.4141 5.45376L16.8541 6.24043L13.8808 10.387C13.756 10.5649 13.5514 10.6696 13.3342 10.667C13.2227 10.6659 13.1131 10.6384 13.0142 10.587L5.68099 6.58711C5.51043 6.49674 5.38849 6.33574 5.34768 6.14712C5.30556 5.95612 5.34943 5.75625 5.46768 5.60044L8.32094 1.80051C8.43475 1.64514 8.55956 1.49814 8.69425 1.36052C9.49748 0.51322 10.6069 0.0233538 11.7742 0.000541706C11.8367 -0.00164576 11.8993 0.00279167 11.9609 0.013854C13.3871 0.0568532 14.7082 0.774341 15.5208 1.94713L17.4141 4.69377C17.5726 4.92233 17.5726 5.22526 17.4141 5.45376Z" fill="url(#paint1_linear_2108_5388)"/>
    <path d="M13.1212 18.4938C12.9183 18.6803 12.6216 18.7227 12.3745 18.6005L10.2946 17.5605L9.08129 20.0005L8.6013 20.9605C8.4863 21.1868 8.25518 21.3306 8.00131 21.3338H2.85478C2.13985 21.3424 1.45018 21.0694 0.93481 20.5738L0.908123 20.5471C0.601066 20.2653 0.359758 19.9194 0.201448 19.5338C-0.00317356 19.0121 -0.0495477 18.4417 0.0681377 17.8938C0.120012 17.6582 0.200573 17.4298 0.308134 17.2138L2.52141 12.8006L0.201448 10.4673C0.00376381 10.2833 -0.0551726 9.99397 0.0547629 9.74729C0.157011 9.49836 0.398944 9.3353 0.668065 9.33398H9.3346C9.60372 9.3353 9.84565 9.49836 9.9479 9.74729L13.2812 17.7471C13.3847 18.0055 13.3215 18.3006 13.1212 18.4938Z" fill="url(#paint2_linear_2108_5388)"/>
    <path d="M13.3339 20.6658V28.6656C13.3339 29.0338 13.0354 29.3323 12.6672 29.3323H9.42727C7.89711 29.3359 6.46438 28.5821 5.60065 27.319C5.41396 27.0524 5.25396 26.8124 5.10734 26.599L5.05403 26.5457C5.06734 26.5457 4.80072 26.1724 4.54735 25.7991C4.42735 25.6391 4.33404 25.4791 4.24067 25.3591C3.89399 24.8524 3.70737 24.5991 3.78736 24.7058C3.72068 24.5991 3.65405 24.5191 3.62737 24.4658L3.61405 24.4525C3.56074 24.3725 3.54337 24.3458 3.54074 24.3392L3.52074 24.3192L3.50743 24.2925C2.57414 22.9458 1.70746 21.6925 0.934164 20.5725L0.907477 20.5458C0.654169 20.1992 0.427485 19.8525 0.200802 19.5325C-0.00381946 19.0109 -0.0501937 18.4404 0.0674918 17.8926L1.86746 19.6125C2.13102 19.8687 2.48664 20.0081 2.85413 19.9992H12.6673C13.0354 19.9992 13.3339 20.2976 13.3339 20.6658Z" fill="url(#paint3_linear_2108_5388)"/>
    <path d="M27.9483 3.5866L24.615 11.5865C24.5128 11.8354 24.2708 11.9985 24.0017 11.9998C23.9613 12.002 23.9207 11.9975 23.8817 11.9865L16.5485 10.6532C16.2689 10.596 16.0523 10.3741 16.0019 10.0932C15.9619 9.80543 16.113 9.52493 16.3752 9.39987L18.3485 8.4132L16.8552 6.23993L14.4285 2.6933C13.842 1.85994 12.8876 1.36289 11.8686 1.36001H8.69531C9.35461 0.662089 10.2268 0.202535 11.1753 0.0533502L11.7753 0.0133509H11.9619L20.5751 3.86309e-05C21.6935 -0.00533627 22.7399 0.550466 23.3617 1.48001L24.895 3.79997L27.0417 2.7333C27.2887 2.61112 27.5854 2.65349 27.7883 2.83999C27.9888 3.03299 28.0522 3.32842 27.9483 3.5866Z" fill="url(#paint4_linear_2108_5388)"/>
    <path d="M31.76 19.5863C31.76 19.5863 31.6223 19.9506 31.4714 20.1015C31.3205 20.2525 31.245 20.4034 31.245 20.4034L31.08 20.573L31.04 20.613L26.4001 27.3462C25.5309 28.6099 24.094 29.3633 22.5602 29.3594H21.3202V31.3594C21.3181 31.6355 21.1496 31.8829 20.8935 31.9861C20.8162 32.0123 20.7351 32.0258 20.6535 32.0261C20.4636 32.0275 20.2828 31.9445 20.1602 31.7994L14.827 25.7995C14.6154 25.5699 14.5986 25.2218 14.787 24.9728L20.1202 17.6396C20.2837 17.4049 20.58 17.3026 20.8535 17.3863C21.1327 17.4741 21.3219 17.7337 21.3202 18.0263V20.0263H29.1333C29.5008 20.0352 29.8564 19.8959 30.12 19.6396L31.92 17.9196C32.0429 18.4782 31.9997 19.0449 31.76 19.5863Z" fill="url(#paint5_linear_2108_5388)"/>
  </g>
  <defs>
    <linearGradient id="paint0_linear_2108_5388" x1="24.7699" y1="13.2834" x2="28.9963" y2="20.6796" gradientUnits="userSpaceOnUse">
      <stop stop-color="#32B282"/>
      <stop offset="1" stop-color="#0B6B47"/>
    </linearGradient>
    <linearGradient id="paint1_linear_2108_5388" x1="15.1077" y1="-5.05049e-07" x2="9.97561" y2="9.20755" gradientUnits="userSpaceOnUse">
      <stop stop-color="#0B6B47"/>
      <stop offset="1" stop-color="#32B282"/>
    </linearGradient>
    <linearGradient id="paint2_linear_2108_5388" x1="10.2025" y1="9.35875" x2="3.18367" y2="21.2833" gradientUnits="userSpaceOnUse">
      <stop stop-color="#32B282"/>
      <stop offset="1" stop-color="#0B6B47"/>
    </linearGradient>
    <linearGradient id="paint3_linear_2108_5388" x1="13.2964" y1="24.7536" x2="3.03221" y2="20.2253" gradientUnits="userSpaceOnUse">
      <stop stop-color="#0B6B47"/>
      <stop offset="1" stop-color="#32B282"/>
    </linearGradient>
    <linearGradient id="paint4_linear_2108_5388" x1="12.0901" y1="-0.000516103" x2="24.9203" y2="12.075" gradientUnits="userSpaceOnUse">
      <stop stop-color="#32B282"/>
      <stop offset="1" stop-color="#0B6B47"/>
    </linearGradient>
    <linearGradient id="paint5_linear_2108_5388" x1="31.1695" y1="20.3279" x2="15.5469" y2="24.6298" gradientUnits="userSpaceOnUse">
      <stop stop-color="#32B282"/>
      <stop offset="1" stop-color="#0B6B47"/>
    </linearGradient>
    <clipPath id="clip0_2108_5388">
      <rect width="32" height="32" fill="white"/>
    </clipPath>
  </defs>
</svg>