
        <svg
          xmlns="http://www.w3.org/2000/svg"
          width="187"
          height="124"
          viewBox="0 0 187 124"
          fill="none"
        >
          <path
            d="M166.119 37.267L163.735 48.7618L162.201 47.2713L159.591 49.1264L157.596 46.6588L153.122 49.8977L149.299 43.5315L145.035 46.0189L143.344 43.6977L137.929 46.7357L136.3 43.2612L140.096 24.9563L160.445 29.1401L166.119 37.267Z"
            fill="#EBEBEB"
          />
          <path
            d="M160.445 29.1399L166.119 37.2669L159.061 35.8161L160.445 29.1399Z"
            fill="#DBDBDB"
          />
          <path
            d="M163.227 51.0582L159.733 67.9222L132.322 62.2877L135.792 45.5601L137.421 49.0321L142.838 45.9941L144.527 48.3153L148.794 45.8304L152.614 52.1965L157.09 48.9577L159.083 51.4228L161.696 49.5702L163.227 51.0582Z"
            fill="#EBEBEB"
          />
          <path
            d="M123.996 49.0817L96.062 50.8028L93.8428 15.1007L114.586 13.821L122.2 20.1822L123.996 49.0817Z"
            fill="#EBEBEB"
          />
          <path
            d="M114.586 13.821L122.2 20.1822L115.007 20.6262L114.586 13.821Z"
            fill="#DBDBDB"
          />
          <path
            d="M106.852 37.8447L106.742 37.0387C106.461 35.3697 106.919 33.5022 108.376 31.5505C109.691 29.8145 110.403 28.5745 110.324 27.1658C110.234 25.5786 109.176 24.5767 107.205 24.6561C106.079 24.7143 104.998 25.1122 104.104 25.7969L103.245 23.8798C104.241 23.0738 105.985 22.4786 107.641 22.3918C111.235 22.1934 112.984 24.3113 113.121 26.6748C113.24 28.7902 112.14 30.3799 110.74 32.2374C109.455 33.9313 109.034 35.3275 109.215 36.9073L109.293 37.7157L106.852 37.8447ZM106.408 42.2368C106.344 41.0861 107.078 40.2329 108.172 40.1734C109.265 40.1139 110.062 40.8777 110.127 42.0309C110.187 43.1197 109.517 43.9976 108.361 44.0621C107.258 44.1241 106.461 43.3255 106.398 42.2368H106.408Z"
            fill="#DBDBDB"
          />
          <path
            d="M36.9822 31.7712L34.1727 30.5039L33.7816 31.3595C33.7239 31.4818 33.6338 31.5861 33.521 31.6612C33.4082 31.7364 33.2771 31.7795 33.1415 31.7861C32.9871 31.7911 32.8332 31.806 32.6807 31.8307C32.5469 31.8505 32.4101 31.8337 32.2851 31.7822C32.1601 31.7306 32.0515 31.6463 31.9709 31.5381L31.4204 30.7717L28.9122 32.5623L29.4627 33.3286C29.5393 33.4392 29.5843 33.5684 29.5931 33.7025C29.6019 33.8365 29.574 33.9704 29.5125 34.09C29.4415 34.2264 29.3775 34.3663 29.3207 34.5091C29.2714 34.6351 29.1885 34.7453 29.081 34.8278C28.9735 34.9104 28.8454 34.9623 28.7105 34.9778L27.7715 35.0696L28.0729 38.1274L29.0169 38.0332C29.1522 38.0224 29.288 38.0486 29.4096 38.1089C29.5311 38.1692 29.6339 38.2613 29.7068 38.3754C29.7466 38.4399 29.789 38.5019 29.8338 38.5639C29.8786 38.6259 29.9235 38.6854 29.9708 38.7449C30.0568 38.8491 30.112 38.9749 30.1305 39.1084C30.149 39.242 30.1299 39.378 30.0754 39.5013L29.6819 40.3644L32.4939 41.6341L32.885 40.7736C32.9432 40.6514 33.0339 40.5474 33.1471 40.4727C33.2603 40.3979 33.3919 40.3554 33.5276 40.3495C33.6802 40.3432 33.8324 40.3283 33.9834 40.3049C34.1172 40.2851 34.254 40.3018 34.379 40.3534C34.504 40.4049 34.6126 40.4893 34.6932 40.5975L35.2437 41.3638L37.7544 39.5733L37.2039 38.8069C37.125 38.6973 37.0785 38.5679 37.0697 38.4334C37.0609 38.2988 37.0901 38.1645 37.1541 38.0456C37.2235 37.91 37.2858 37.7709 37.3409 37.6289C37.3888 37.5021 37.4713 37.391 37.5791 37.3082C37.6869 37.2254 37.8157 37.1741 37.9511 37.1602L38.8951 37.066L38.5912 34.0081L37.6473 34.0999C37.5127 34.1117 37.3775 34.0862 37.2567 34.0262C37.1358 33.9662 37.0339 33.8742 36.9623 33.7601C36.92 33.6957 36.8776 33.6337 36.8328 33.5717C36.7879 33.5097 36.7431 33.4477 36.6958 33.3906C36.6104 33.2852 36.5556 33.1586 36.5371 33.0244C36.5187 32.8903 36.5374 32.7536 36.5912 32.6293L36.9822 31.7712ZM35.3882 34.6009C35.6794 35.0056 35.8436 35.4872 35.86 35.9848C35.8763 36.4824 35.7441 36.9737 35.48 37.3965C35.2159 37.8193 34.8318 38.1546 34.3763 38.36C33.9208 38.5655 33.4144 38.6318 32.921 38.5506C32.4277 38.4694 31.9696 38.2444 31.6047 37.904C31.2398 37.5636 30.9845 37.123 30.871 36.6381C30.7576 36.1532 30.7911 35.6457 30.9674 35.1798C31.1436 34.7138 31.4547 34.3104 31.8613 34.0205C32.4063 33.6319 33.084 33.4747 33.7454 33.5836C34.4068 33.6924 34.9977 34.0583 35.3882 34.6009Z"
            fill="#EBEBEB"
          />

          <path
            d="M42.666 22.6077L40.9499 23.9171L41.3459 24.4404C41.405 24.515 41.4413 24.6048 41.4506 24.6994C41.4599 24.7939 41.4417 24.8891 41.3982 24.9736C41.3506 25.0701 41.309 25.1695 41.2737 25.2712C41.243 25.3608 41.1878 25.44 41.1143 25.5C41.0408 25.5601 40.952 25.5985 40.8577 25.6109L40.2002 25.6953L40.4792 27.8306L41.1367 27.7462C41.2324 27.7329 41.33 27.7468 41.4181 27.7863C41.5062 27.8258 41.5814 27.8893 41.6349 27.9694C41.6948 28.0557 41.7597 28.1385 41.8291 28.2174C41.8933 28.2877 41.9359 28.3748 41.9518 28.4685C41.9677 28.5621 41.9562 28.6583 41.9188 28.7457L41.6697 29.3558L43.6623 30.1816L43.9114 29.5715C43.9485 29.484 44.0094 29.4086 44.0873 29.3538C44.1652 29.299 44.257 29.267 44.3523 29.2615L44.5117 29.2442L44.6686 29.2194C44.7608 29.2021 44.8559 29.2102 44.9438 29.243C45.0316 29.2758 45.1087 29.332 45.1667 29.4054L45.5727 29.9336L47.2888 28.6241L46.8878 28.1009C46.8299 28.0253 46.7943 27.9351 46.7851 27.8404C46.7758 27.7458 46.7933 27.6505 46.8355 27.5652C46.8827 27.4693 46.9243 27.3708 46.9601 27.2701C46.9908 27.1805 47.046 27.1012 47.1194 27.0412C47.1929 26.9812 47.2818 26.9428 47.376 26.9303L48.0336 26.846L47.7546 24.7107L47.097 24.795C47.0016 24.8086 46.9042 24.795 46.8161 24.756C46.728 24.717 46.6527 24.654 46.5989 24.5743C46.5366 24.485 46.4719 24.4007 46.4021 24.3263C46.3441 24.2545 46.3066 24.1685 46.2934 24.0774C46.2803 23.9862 46.292 23.8931 46.3274 23.808L46.5765 23.1979L44.5839 22.3721L44.3348 22.9822C44.2973 23.0693 44.2362 23.1445 44.1584 23.1992C44.0806 23.2539 43.989 23.2861 43.894 23.2922L43.7345 23.307L43.5876 23.312C43.4954 23.3293 43.4002 23.3211 43.3124 23.2883C43.2246 23.2555 43.1475 23.1994 43.0895 23.126L42.666 22.6077ZM43.894 24.5247C44.2409 24.4803 44.5933 24.5392 44.9067 24.694C45.2201 24.8487 45.4804 25.0925 45.6548 25.3944C45.8292 25.6963 45.9099 26.0429 45.8868 26.3904C45.8636 26.7379 45.7376 27.0709 45.5246 27.3472C45.3116 27.6235 45.0212 27.8308 44.69 27.9429C44.3589 28.0551 44.0017 28.0671 43.6637 27.9774C43.3257 27.8877 43.022 27.7004 42.7908 27.439C42.5596 27.1776 42.4113 26.8539 42.3646 26.5087C42.3335 26.2784 42.3484 26.0441 42.4086 25.8196C42.4687 25.595 42.5728 25.3844 42.7149 25.2C42.857 25.0156 43.0344 24.8611 43.2367 24.7452C43.4391 24.6293 43.6624 24.5543 43.894 24.5247Z"
            fill="#EBEBEB"
          />
          <path
            d="M29.1409 70.0576C29.1471 70.0416 29.1471 70.0239 29.1409 70.008C28.6427 63.4556 27.4079 56.9795 25.4596 50.7012C25.4596 50.6838 25.4223 50.6888 25.4273 50.7012C26.1795 53.5118 26.8437 56.3341 27.4198 59.1679C26.9095 58.6865 26.2861 58.3403 25.6066 58.161C25.6066 58.161 25.5867 58.1759 25.6066 58.1809C26.3204 58.4413 26.9622 58.8662 27.4796 59.4209C27.5892 59.9789 27.6988 60.5344 27.8009 61.0924C26.9516 60.1475 25.776 59.6788 24.5978 59.2324C24.5952 59.2335 24.5929 59.2354 24.5913 59.2379C24.5897 59.2403 24.5889 59.2431 24.5889 59.246C24.5889 59.2489 24.5897 59.2517 24.5913 59.2542C24.5929 59.2566 24.5952 59.2585 24.5978 59.2597C25.8258 59.7557 27.0462 60.3955 27.8781 61.4495C28.1671 63.0417 28.4211 64.6396 28.6403 66.2433C28.027 65.6036 27.2406 65.1548 26.3762 64.9513C26.3488 64.9513 26.3339 64.9835 26.3613 64.9909C27.2492 65.2513 28.0419 65.7631 28.6428 66.4641H28.6577C28.7325 67.0262 28.8039 67.5908 28.8719 68.1579C28.3975 67.7582 27.8619 67.4366 27.2853 67.2056C27.2704 67.2056 27.2604 67.2229 27.2853 67.2279C27.8737 67.4817 28.4125 67.8368 28.8769 68.2769C28.8769 68.2769 28.8894 68.2769 28.8968 68.2769C28.9591 68.8151 29.0214 69.3533 29.0762 69.8914C28.2209 68.8619 27.1109 68.0721 25.8557 67.5999C25.8504 67.5999 25.8453 67.602 25.8416 67.6057C25.8378 67.6094 25.8357 67.6145 25.8357 67.6197C25.8357 67.625 25.8378 67.63 25.8416 67.6338C25.8453 67.6375 25.8504 67.6396 25.8557 67.6396C27.0952 68.1836 28.1839 69.0183 29.0289 70.0725C29.0382 70.084 29.0507 70.0926 29.0649 70.097C29.0791 70.1014 29.0943 70.1015 29.1086 70.0973C29.1908 70.9231 29.2655 71.7489 29.3253 72.5773C29.3253 72.5897 29.3452 72.5897 29.3452 72.5773C29.2804 71.7456 29.2123 70.9057 29.1409 70.0576Z"
            fill="white"
          />
          <path
            d="M26.0904 57.2161C25.403 56.7901 24.6176 56.546 23.8089 56.5068C23.8049 56.5068 23.8011 56.5084 23.7983 56.5112C23.7955 56.514 23.7939 56.5178 23.7939 56.5217C23.7939 56.5257 23.7955 56.5294 23.7983 56.5322C23.8011 56.535 23.8049 56.5366 23.8089 56.5366C24.5908 56.6842 25.3496 56.9344 26.0655 57.2806C26.0954 57.288 26.1178 57.236 26.0904 57.2161Z"
            fill="white"
          />
          <path
            d="M26.5508 67.3767C26.0224 67.0748 25.4407 66.8769 24.8372 66.7939C24.8173 66.7939 24.8148 66.8212 24.8372 66.8262C25.4265 66.9439 25.9965 67.1425 26.5309 67.4164C26.5533 67.4288 26.5732 67.3891 26.5508 67.3767Z"
            fill="white"
          />
          <path
            d="M39.8259 60.6781C38.2201 61.7833 36.7453 63.0662 35.4298 64.5023C34.0731 66.0227 33.0266 67.7916 32.3487 69.7103C30.9061 73.7076 30.1303 77.913 30.0523 82.1599C30.0039 84.5117 30.2304 86.8612 30.7273 89.1609C30.7313 89.1776 30.7416 89.1922 30.7561 89.2015C30.7706 89.2108 30.7882 89.2143 30.8051 89.2111C30.8221 89.2079 30.8372 89.1983 30.8473 89.1844C30.8573 89.1704 30.8617 89.1531 30.8593 89.1361C30.241 85.0779 30.2646 80.9483 30.929 76.8973C31.5816 72.9293 32.6053 68.6092 35.1409 65.3827C36.5207 63.6244 38.2418 62.243 39.943 60.8145C40.0327 60.7351 39.9181 60.6136 39.8259 60.6781Z"
            fill="#EBEBEB"
          />
          <path
            d="M30.6104 79.2981C31.5244 77.826 32.5986 76.4587 33.8134 75.221C35.7139 73.3287 37.3129 71.9846 37.562 70.7347C37.8111 69.4847 35.6591 68.5622 35.6591 68.5622C35.6591 68.5622 38.2868 69.0334 39.0066 67.9347C39.7264 66.8361 40.0727 60.4724 40.0727 60.4724C40.0727 60.4724 35.2904 63.8725 33.0612 68.6391C30.832 73.4056 30.6104 79.2981 30.6104 79.2981Z"
            fill="#EBEBEB"
          />
          <path
            d="M38.3565 66.4417C38.0416 66.3951 37.7224 66.3843 37.405 66.4095C37.3677 66.4095 37.3702 66.474 37.405 66.4765C37.7189 66.4765 38.0352 66.4616 38.349 66.4765C38.3526 66.4755 38.3559 66.4736 38.3584 66.471C38.361 66.4683 38.3628 66.465 38.3635 66.4614C38.3643 66.4578 38.3641 66.454 38.3628 66.4506C38.3616 66.4471 38.3594 66.444 38.3565 66.4417Z"
            fill="white"
          />
          <path
            d="M34.9218 72.6145C34.4168 72.6247 33.9176 72.7238 33.4473 72.9071C33.4473 72.9071 33.4473 72.9319 33.4473 72.9295C33.9454 72.8129 34.4261 72.7658 34.9193 72.6815C34.9257 72.6787 34.9312 72.6741 34.9352 72.6683C34.9392 72.6625 34.9414 72.6558 34.9416 72.6488C34.9419 72.6418 34.9402 72.6349 34.9367 72.6288C34.9332 72.6227 34.928 72.6178 34.9218 72.6145Z"
            fill="white"
          />
          <path
            d="M33.8911 70.4815C33.6814 70.4799 33.4721 70.4982 33.2659 70.5361C33.2621 70.5375 33.2588 70.54 33.2565 70.5434C33.2542 70.5467 33.2529 70.5507 33.2529 70.5547C33.2529 70.5588 33.2542 70.5627 33.2565 70.566C33.2588 70.5694 33.2621 70.5719 33.2659 70.5733C33.4747 70.5853 33.6842 70.5762 33.8911 70.546C33.8997 70.546 33.9079 70.5426 33.914 70.5366C33.9201 70.5305 33.9235 70.5223 33.9235 70.5138C33.9235 70.5052 33.9201 70.497 33.914 70.491C33.9079 70.4849 33.8997 70.4815 33.8911 70.4815Z"
            fill="white"
          />
          <path
            d="M16.5903 67.4288C18.1468 67.9542 19.6384 68.6539 21.0363 69.5145C22.4867 70.4322 23.7446 71.6214 24.74 73.0163C26.8345 75.9192 28.4381 79.1435 29.4873 82.5618C30.0725 84.4544 30.4337 86.4087 30.5633 88.3848C30.5606 88.3976 30.5536 88.4091 30.5434 88.4173C30.5332 88.4255 30.5204 88.43 30.5073 88.43C30.4942 88.43 30.4814 88.4255 30.4712 88.4173C30.461 88.4091 30.454 88.3976 30.4513 88.3848C30.0116 84.9585 29.035 81.622 27.557 78.497C26.1049 75.4342 24.2742 72.1755 21.4746 70.1469C19.9503 69.0433 18.2367 68.3191 16.528 67.5553C16.4384 67.5255 16.5006 67.3991 16.5903 67.4288Z"
            fill="#EBEBEB"
          />
          <path
            d="M28.3715 80.3767C27.2894 79.3965 26.1025 78.5374 24.8322 77.8149C22.8545 76.7212 21.248 76.002 20.7573 75.0472C20.2667 74.0924 21.7935 72.8524 21.7935 72.8524C21.7935 72.8524 19.776 73.8444 18.9391 73.1128C18.1022 72.3812 16.3438 67.322 16.3438 67.322C16.3438 67.322 21.0039 68.9712 23.9106 72.3167C26.8173 75.6623 28.3715 80.3767 28.3715 80.3767Z"
            fill="#EBEBEB"
          />
          <path
            d="M24.5034 75.7193C24.0452 75.6875 23.5852 75.7439 23.1484 75.8855C23.1484 75.8855 23.1484 75.9078 23.1484 75.9053C23.594 75.8292 24.0442 75.7828 24.4959 75.7664C24.5283 75.7664 24.5358 75.7218 24.5034 75.7193Z"
            fill="white"
          />
          <path
            d="M20.4381 70.4121C20.2291 70.3951 20.0188 70.4068 19.813 70.4468C19.7906 70.4468 19.798 70.4865 19.813 70.484C20.0197 70.4617 20.2215 70.4691 20.4257 70.4642C20.432 70.4644 20.4383 70.4625 20.4433 70.4587C20.4484 70.4548 20.452 70.4494 20.4534 70.4432C20.4549 70.4371 20.4542 70.4306 20.4514 70.4249C20.4486 70.4193 20.4439 70.4147 20.4381 70.4121Z"
            fill="white"
          />
          <path
            d="M34.3817 94.7805H23.8633L25.3627 83.8413L25.7463 81.0364H32.4987L32.8822 83.8413L34.3817 94.7805Z"
            fill="#DBDBDB"
          />
          <path
            d="M32.8818 83.8413H25.3623L25.7459 81.0364H32.4983L32.8818 83.8413Z"
            fill="#C7C7C7"
          />
          <path
            d="M33.463 80.0642H24.7803V82.4401H33.463V80.0642Z"
            fill="#DBDBDB"
          />
          <path
            d="M17.1758 94.7807L36.1079 94.7212L55.0399 94.6989L92.9041 94.6567L130.768 94.6989L149.7 94.7212L168.632 94.7807L149.7 94.8427L130.768 94.8626L92.9041 94.9047L55.0399 94.8626L36.1079 94.8403L17.1758 94.7807Z"
            fill="#263238"
          />
          <path
            d="M76.7762 104.182C76.1959 104.378 59.5552 104.43 58.9176 104.039C58.6685 103.89 58.5266 101.477 58.4195 98.5554C58.3971 97.9254 58.3796 97.2732 58.3647 96.6135L57.0371 87.7748L68.1632 87.7029L69.2118 96.5441L69.1695 98.4884C69.1695 98.4884 75.5508 101.303 76.2033 101.814C76.8559 102.325 77.3565 103.987 76.7762 104.182Z"
            fill="#EB9481"
          />
          <path
            d="M76.7766 104.182C76.1962 104.378 59.5556 104.43 58.918 104.039C58.6241 103.855 58.4647 100.331 58.375 96.6134L69.1997 96.5439L69.1574 98.4883C69.1574 98.4883 75.5387 101.303 76.1912 101.814C76.8438 102.325 77.3569 103.986 76.7766 104.182Z"
            fill="white"
          />
          <path
            d="M76.7766 104.182C76.1963 104.378 59.5557 104.43 58.9181 104.039C58.669 103.89 58.527 101.477 58.4199 98.5552L69.1475 98.4883C69.1475 98.4883 75.5288 101.303 76.1814 101.814C76.8339 102.325 77.357 103.986 76.7766 104.182Z"
            fill="#A6A6A6"
          />
          <path
            d="M76.5348 103.52C73.7452 103.461 62.487 103.488 59.7248 103.642C59.7024 103.642 59.7024 103.657 59.7248 103.659C62.4895 103.776 73.7477 103.659 76.5348 103.565C76.5946 103.562 76.5946 103.52 76.5348 103.52Z"
            fill="#263238"
          />
          <path
            d="M75.118 101.221C74.8078 101.214 74.4995 101.272 74.2127 101.389C73.9259 101.507 73.6667 101.683 73.4517 101.906C73.0598 102.303 72.8383 102.837 72.834 103.394C72.834 103.411 72.8639 103.411 72.8664 103.394C72.959 102.845 73.2273 102.341 73.6313 101.957C74.0353 101.572 74.5533 101.328 75.108 101.261C75.1133 101.262 75.1189 101.261 75.1236 101.259C75.1282 101.256 75.1316 101.251 75.1329 101.246C75.1342 101.241 75.1334 101.235 75.1306 101.231C75.1278 101.226 75.1233 101.223 75.118 101.221Z"
            fill="#263238"
          />
          <path
            d="M70.2386 98.761C69.1227 98.7486 67.83 99.1454 67.1376 100.058C67.1127 100.093 67.1625 100.13 67.1949 100.113C68.1698 99.6002 69.1968 99.1929 70.2585 98.8974C70.2749 98.8929 70.2891 98.8827 70.2984 98.8685C70.3078 98.8543 70.3115 98.8372 70.3091 98.8205C70.3066 98.8037 70.2981 98.7884 70.2851 98.7774C70.2721 98.7665 70.2556 98.7607 70.2386 98.761Z"
            fill="#263238"
          />
          <path
            d="M71.105 99.0911C69.9866 99.0911 68.6939 99.4779 68.004 100.388C67.9766 100.425 68.0264 100.463 68.0613 100.445C69.0348 99.931 70.0611 99.5227 71.1224 99.2275C71.1386 99.223 71.1527 99.2129 71.162 99.199C71.1713 99.1851 71.1753 99.1683 71.1731 99.1517C71.171 99.1351 71.163 99.1199 71.1504 99.1087C71.1379 99.0976 71.1218 99.0913 71.105 99.0911Z"
            fill="#263238"
          />
          <path
            d="M71.9671 99.4234C70.8512 99.4234 69.5585 99.8078 68.8661 100.72C68.8412 100.755 68.891 100.792 68.9234 100.775C69.8983 100.263 70.9253 99.8552 71.987 99.5598C72.0034 99.5553 72.0176 99.545 72.0269 99.5308C72.0363 99.5166 72.0401 99.4996 72.0376 99.4828C72.0352 99.466 72.0266 99.4507 72.0136 99.4398C72.0007 99.4288 71.9841 99.423 71.9671 99.4234Z"
            fill="#263238"
          />
          <path
            d="M72.8313 99.7557C71.713 99.7433 70.4203 100.14 69.7303 101.053C69.7029 101.087 69.7552 101.125 69.7876 101.107C70.7623 100.594 71.7894 100.187 72.8512 99.8921C72.8676 99.8876 72.8818 99.8773 72.8912 99.8631C72.9005 99.8489 72.9043 99.8319 72.9018 99.8151C72.8994 99.7983 72.8909 99.783 72.8779 99.7721C72.8649 99.7611 72.8483 99.7553 72.8313 99.7557Z"
            fill="#263238"
          />
          <path
            d="M60.4272 101.001C59.1818 101.001 59.1818 102.947 60.4272 102.94C61.6726 102.932 61.6825 100.993 60.4272 101.001Z"
            fill="#263238"
          />
          <path
            d="M71.4367 95.79C70.8713 95.3237 70.1589 95.79 69.8127 96.2686C69.2364 97.1146 68.8929 98.0963 68.8164 99.1157C68.8164 99.138 68.8338 99.1479 68.8513 99.1479C68.8557 99.1689 68.8651 99.1885 68.8787 99.2051C68.8924 99.2217 68.9098 99.2348 68.9296 99.2433C68.9493 99.2519 68.9709 99.2555 68.9923 99.254C69.0138 99.2525 69.0346 99.2459 69.053 99.2347C69.8451 98.6866 70.7617 98.1956 71.3619 97.4193C71.7032 96.968 71.9821 96.224 71.4367 95.79ZM70.0767 98.1559C69.6931 98.4361 69.2971 98.6965 68.9235 98.9917C69.1228 98.4361 69.2946 97.8757 69.5487 97.34C69.6661 97.0831 69.8009 96.8346 69.9522 96.596C70.2013 96.2265 71.2872 95.294 71.4018 96.5017C71.4666 97.1639 70.5325 97.8236 70.0767 98.1559Z"
            fill="#263238"
          />
          <path
            d="M40.6787 46.9216C40.6787 46.9216 53.5982 68.8052 53.9444 70.3428C54.4749 72.7037 57.2869 96.0182 57.2869 96.0182L70.7369 95.7702C70.7369 95.7702 68.4205 75.2135 66.2262 68.4406C64.6471 63.5624 53.2445 47.3829 53.2445 47.3829L40.6787 46.9216Z"
            fill="#37474F"
          />
          <path
            d="M69.5141 93.7268C67.5837 93.7119 60.7417 93.635 58.1713 93.8731C58.1513 93.8731 58.1538 93.9078 58.1713 93.9103C59.0555 94.0368 67.5812 93.8408 69.5116 93.7788C69.5156 93.7803 69.5199 93.7808 69.5242 93.7803C69.5284 93.7798 69.5325 93.7782 69.5361 93.7759C69.5396 93.7735 69.5426 93.7703 69.5447 93.7666C69.5468 93.7629 69.548 93.7587 69.5482 93.7545C69.5484 93.7502 69.5476 93.746 69.5459 93.7421C69.5441 93.7382 69.5415 93.7347 69.5382 93.732C69.5349 93.7293 69.5309 93.7275 69.5267 93.7265C69.5226 93.7256 69.5182 93.7257 69.5141 93.7268Z"
            fill="#263238"
          />
          <path
            d="M42.8822 48.9305C43.7291 50.2523 44.6258 51.5469 45.4876 52.8588C46.3493 54.1707 47.2161 55.4826 48.0704 56.7921C49.7741 59.4374 51.4346 62.1001 53.0519 64.7802C53.8412 66.0224 54.5165 67.3331 55.0694 68.6961C55.5742 70.0594 55.9535 71.4655 56.2027 72.8972C56.4667 74.3331 56.6411 75.7839 56.803 77.2347C56.969 78.7773 57.1425 80.3207 57.3235 81.8649C57.6772 85.0244 58.0317 88.1839 58.3871 91.3434C58.4294 91.7303 58.4718 92.1172 58.5116 92.5066C58.5116 92.5636 58.4145 92.5735 58.407 92.5066C58.011 89.3694 57.6822 86.2198 57.3235 83.0826C57.1442 81.5168 56.9657 79.952 56.788 78.3879C56.6211 76.9322 56.4617 75.4739 56.2351 74.0281C56.0271 72.6009 55.7107 71.1916 55.2886 69.8121C54.8235 68.3837 54.2003 67.0113 53.4305 65.7201C51.8738 63.0442 50.2249 60.4154 48.5761 57.7841C46.9272 55.1528 45.2335 52.4992 43.495 49.9002C43.2808 49.5802 43.0641 49.2603 42.8399 48.9454C42.8225 48.928 42.8673 48.9057 42.8822 48.9305Z"
            fill="#263238"
          />
          <path
            d="M44.9126 105.472C44.2999 105.435 28.4737 99.0512 28.0353 98.4461C28.0158 98.4105 28.0072 98.37 28.0104 98.3295C28.0104 97.7864 29.1089 95.8917 30.0254 93.4018C30.0827 93.243 30.4912 92.504 31.0566 91.5095C32.6283 88.784 35.3681 84.0894 35.3681 84.0894L45.7121 88.1814L40.7605 95.5594L39.9909 97.345C39.9909 97.345 44.8453 102.342 45.2538 103.049C45.6623 103.756 45.5228 105.507 44.9126 105.472Z"
            fill="#EB9481"
          />
          <path
            d="M44.9126 105.472C44.2999 105.435 28.4737 99.0512 28.0353 98.4461C28.0158 98.4105 28.0072 98.37 28.0104 98.3295C28.0104 97.7864 29.1089 95.8917 30.0254 93.4018C30.0827 93.243 30.4912 92.504 31.0566 91.5095L40.7705 95.5594L40.0008 97.345C40.0008 97.345 44.8553 102.342 45.2638 103.049C45.6723 103.756 45.5228 105.507 44.9126 105.472Z"
            fill="white"
          />
          <path
            d="M44.9126 105.472C44.2999 105.435 28.4738 99.0513 28.0354 98.4462C27.866 98.2155 28.5734 96.0654 30.028 93.4019L39.9909 97.3475C39.9909 97.3475 44.8454 102.34 45.2563 103.052C45.6673 103.763 45.5229 105.507 44.9126 105.472Z"
            fill="#A6A6A6"
          />
          <path
            d="M44.9376 104.768C42.3746 103.672 31.9285 99.4904 29.3107 98.6025C29.2883 98.6025 29.2833 98.6025 29.3107 98.6174C31.8289 99.7582 42.3074 103.855 44.9276 104.817C44.9774 104.83 44.9924 104.79 44.9376 104.768Z"
            fill="#263238"
          />
          <path
            d="M44.4888 102.107C44.2046 101.982 43.8975 101.918 43.5871 101.918C43.2767 101.918 42.9697 101.982 42.6855 102.107C42.1745 102.329 41.7695 102.74 41.5547 103.252C41.5547 103.267 41.5771 103.28 41.5846 103.265C41.8782 102.789 42.3187 102.421 42.8401 102.216C43.3614 102.011 43.9355 101.98 44.4763 102.127C44.4805 102.125 44.4841 102.123 44.4864 102.119C44.4887 102.115 44.4896 102.111 44.4888 102.107Z"
            fill="#263238"
          />
          <path
            d="M40.8947 98.0047C39.866 97.5756 38.516 97.4616 37.5322 98.0493C37.4948 98.0716 37.5322 98.1237 37.5646 98.1212C38.6613 98.0105 39.7668 98.0163 40.8623 98.1386C40.8792 98.1404 40.8961 98.1361 40.91 98.1264C40.9239 98.1167 40.9337 98.1022 40.9377 98.0858C40.9416 98.0694 40.9395 98.0521 40.9316 98.0372C40.9236 98.0223 40.9105 98.0107 40.8947 98.0047Z"
            fill="#263238"
          />
          <path
            d="M41.5705 98.6346C40.5418 98.2055 39.1918 98.0914 38.208 98.6792C38.1706 98.7015 38.208 98.7536 38.2404 98.7511C39.3371 98.6391 40.4427 98.6449 41.5381 98.7685C41.555 98.7703 41.5719 98.766 41.5858 98.7562C41.5996 98.7465 41.6095 98.7321 41.6134 98.7157C41.6174 98.6993 41.6152 98.682 41.6073 98.6671C41.5994 98.6521 41.5863 98.6406 41.5705 98.6346Z"
            fill="#263238"
          />
          <path
            d="M42.2474 99.2647C41.2163 98.8357 39.8663 98.7216 38.8849 99.3093C38.8451 99.3317 38.8849 99.3837 38.9148 99.3813C40.0115 99.2692 41.1171 99.275 42.2126 99.3986C42.2298 99.4015 42.2474 99.3978 42.262 99.3884C42.2767 99.3789 42.2872 99.3644 42.2916 99.3476C42.296 99.3307 42.2939 99.3129 42.2857 99.2976C42.2775 99.2822 42.2639 99.2705 42.2474 99.2647Z"
            fill="#263238"
          />
          <path
            d="M42.9222 99.8944C41.8911 99.4654 40.5436 99.3513 39.5597 99.9366C39.5199 99.9614 39.5597 100.013 39.5896 100.011C40.6863 99.899 41.7919 99.9048 42.8874 100.028C42.9046 100.031 42.9222 100.028 42.9368 100.018C42.9515 100.009 42.962 99.9941 42.9664 99.9773C42.9708 99.9605 42.9687 99.9427 42.9605 99.9273C42.9523 99.912 42.9387 99.9002 42.9222 99.8944Z"
            fill="#263238"
          />
          <path
            d="M30.9542 96.4149C29.791 95.9537 29.0687 97.7566 30.2368 98.2179C31.405 98.6792 32.1298 96.8762 30.9542 96.4149Z"
            fill="#263238"
          />

          <path
            d="M41.5648 95.1477L29.9854 90.4928C29.9854 90.4928 44.342 69.4748 44.4466 67.9099C44.5412 66.526 38.2347 54.4683 37.9881 50.9541C37.7191 47.1597 39.5523 44.2259 41.5698 42.4031L53.5128 47.4598C53.5128 47.4598 52.2525 49.4661 50.2749 50.5846C50.2749 50.5846 56.3996 64.5222 56.0509 68.8076C55.7022 73.0931 41.5648 95.1477 41.5648 95.1477Z"
            fill="#37474F"
          />
          <path
            d="M42.0783 92.9554C40.4045 92.2387 40.8952 92.4198 39.2114 91.7154C38.3895 91.3732 32.9846 89.1338 32.1527 88.9478C32.1353 88.9478 32.1228 88.9725 32.1402 88.9825C32.8601 89.4214 38.3098 91.5666 39.1392 91.894C40.8354 92.5586 40.3547 92.3503 42.0583 92.9951C42.0609 92.9985 42.0643 93.0012 42.0681 93.0029C42.072 93.0046 42.0763 93.0053 42.0805 93.0049C42.0847 93.0046 42.0888 93.0031 42.0923 93.0007C42.0958 92.9983 42.0987 92.9951 42.1005 92.9913C42.1024 92.9875 42.1033 92.9833 42.1032 92.9791C42.103 92.9749 42.1017 92.9708 42.0995 92.9672C42.0972 92.9636 42.0941 92.9606 42.0904 92.9586C42.0867 92.9565 42.0825 92.9554 42.0783 92.9554Z"
            fill="#263238"
          />

          <path
            d="M50.8109 49.8481C50.6949 50.0536 50.5925 50.2665 50.5046 50.4855C50.4186 50.6516 50.3653 50.8326 50.3477 51.0186C50.3477 51.0558 50.3975 51.0633 50.4199 51.041C50.5448 50.8921 50.6457 50.7248 50.7188 50.545C50.8209 50.349 50.9255 50.1556 51.0226 49.9547C51.0899 49.8084 50.8881 49.7142 50.8109 49.8481Z"
            fill="#263238"
          />
          <path
            d="M50.9606 48.7222C51.0353 48.5387 51.1075 48.3577 51.1847 48.1742C51.2619 47.9906 51.3591 47.8022 51.4338 47.6087C51.4338 47.579 51.4936 47.6087 51.4811 47.631C51.4064 47.8146 51.3591 48.008 51.3018 48.1965C51.2445 48.385 51.1797 48.5734 51.1175 48.7619C51.0004 49.1116 50.8684 49.4588 50.7065 49.7986C50.9025 49.8083 51.0982 49.7744 51.2794 49.6994C51.4644 49.5814 51.6067 49.4076 51.6854 49.2034C51.79 49 51.8871 48.7917 51.9942 48.5883C52.126 48.3685 52.2369 48.1368 52.3255 47.8964C52.3255 47.8666 52.3853 47.8964 52.3728 47.9187C52.2104 48.427 51.9976 48.918 51.7377 49.3844C51.6256 49.5654 51.5384 49.7564 51.3342 49.8258C51.1131 49.8874 50.8817 49.9034 50.6542 49.873C50.6243 49.873 50.5894 49.873 50.5994 49.8283C50.7014 49.4539 50.8219 49.0848 50.9606 48.7222Z"
            fill="#263238"
          />
          <path
            d="M50.4518 51.0384C50.8778 51.9337 51.2514 52.8265 51.6474 53.7193C52.0434 54.6121 52.3946 55.4752 52.7508 56.363C53.4631 58.1536 54.1008 59.9788 54.6612 61.819C54.9377 62.7316 55.1942 63.6517 55.4233 64.5792C55.6757 65.5038 55.8605 66.4454 55.9763 67.3965C56.0762 68.3461 55.9917 69.306 55.7272 70.2237C55.4525 71.1309 55.1 72.0129 54.6736 72.86C54.4121 73.3956 54.3249 73.3237 54.4495 73.0534C54.8056 72.2846 55.7397 69.9559 55.6724 67.9992C55.6179 67.0624 55.4728 66.133 55.239 65.224C55.0215 64.2866 54.7766 63.3566 54.5043 62.434C53.9737 60.6137 53.3436 58.8306 52.696 57.05C52.3323 56.058 51.9488 55.066 51.5752 54.074C51.2015 53.082 50.8279 52.1693 50.4095 51.0732C50.397 51.0285 50.4394 51.0112 50.4518 51.0384Z"
            fill="#263238"
          />

          <path
            d="M33.2909 88.2881C35.1938 85.4179 37.0618 82.5245 38.895 79.6081C40.7282 76.6916 42.5365 73.7528 44.3198 70.7917C44.7458 70.0849 45.2364 69.3805 45.5104 68.5969C45.8093 67.7462 45.6399 66.9204 45.3709 66.0871C44.863 64.567 44.2692 63.0766 43.5925 61.6231C42.925 60.1574 42.2052 58.7165 41.4978 57.2707C40.7905 55.8249 40.0507 54.3964 39.5052 52.8885C39.0071 51.4477 38.8053 49.9547 39.1939 48.4617C39.5825 46.9688 40.4193 45.6494 41.2936 44.4069C41.5227 44.0796 41.7594 43.7547 41.991 43.4149C42.0084 43.3901 42.0458 43.4149 42.0284 43.4447C41.0644 44.7393 40.1254 46.1107 39.56 47.6309C39.2711 48.3803 39.1094 49.1723 39.0818 49.9745C39.0771 50.7888 39.2041 51.5986 39.4579 52.3727C39.9262 53.8805 40.6659 55.3065 41.3559 56.7251C42.0458 58.1437 42.783 59.6118 43.463 61.0725C44.1645 62.5427 44.7881 64.0485 45.3311 65.5837C45.5627 66.2657 45.8292 66.9799 45.8093 67.7115C45.7919 68.5125 45.4083 69.2342 45.0098 69.9088C43.2663 72.8476 41.4804 75.7517 39.6622 78.6384C37.8439 81.5251 35.9734 84.4118 34.0804 87.2688L33.3631 88.3476C33.3257 88.3922 33.261 88.3401 33.2909 88.2881Z"
            fill="#263238"
          />
          <path
            d="M54.1753 34.0926C55.2538 36.4486 60.701 39.6949 63.2516 40.0446C65.0847 40.2926 70.659 40.3818 72.5694 40.0917C74.8111 39.7494 73.0974 33.7354 71.7749 33.8917C68.1384 34.3133 65.0499 34.7845 64.0785 34.7845C62.8929 34.7845 56.4792 32.736 55.7071 32.4458C53.8142 31.744 53.5651 32.7558 54.1753 34.0926Z"
            fill="#EB9481"
          />
          <path
            d="M54.2109 34.7201C55.5758 36.7314 60.1115 40.0199 60.1115 40.0199L60.7416 38.6311L62.8264 34.0381C62.8264 34.0381 58.6594 32.7361 55.9171 32.1409C55.5944 32.0678 55.2661 32.0214 54.9357 32.0021C53.1847 31.9078 53.0328 32.9841 54.2109 34.7201Z"
            fill="#1EBEC2"
          />
          <path
            d="M54.2109 34.7202C55.5758 36.7315 60.1115 40.0199 60.1115 40.0199L60.7416 38.6311C59.0504 36.6744 56.4376 33.7108 54.9357 32.0071C53.1847 31.9079 53.0328 32.9842 54.2109 34.7202Z"
            fill="#263238"
          />
          <path
            d="M59.2943 39.0874C59.6405 38.2417 61.1798 34.8367 61.5634 34.1274C61.5883 34.0778 61.6281 34.0828 61.6057 34.1274C60.938 35.8207 60.1781 37.4765 59.3292 39.0874C59.3192 39.1172 59.2794 39.1072 59.2943 39.0874Z"
            fill="#263238"
          />
          <path
            d="M71.1074 33.9537C73.3192 33.666 76.0565 33.1725 78.3754 34.1521C78.6358 34.2538 78.8543 34.4399 78.9956 34.6803C80.0417 35.1019 80.1563 35.7195 80.1563 35.7195C81.0106 36.4089 81.0405 37.0587 81.0405 37.0587C81.0405 37.0587 82.2659 37.5547 82.0791 38.3532C81.8749 39.2361 80.1961 38.3532 78.9757 38.4251C76.1736 38.5987 72.2507 39.623 71.4412 39.7519L71.1074 33.9537Z"
            fill="#EB9481"
          />
          <path
            d="M75.9127 36.5529C76.732 36.4971 77.5542 36.4971 78.3735 36.5529C79.2658 36.6644 80.1484 36.8426 81.0137 37.0861C81.0193 37.0881 81.0255 37.0878 81.0309 37.0852C81.0363 37.0827 81.0404 37.0781 81.0424 37.0725C81.0444 37.0669 81.044 37.0608 81.0415 37.0554C81.0389 37.0501 81.0343 37.0459 81.0287 37.044C79.4029 36.4089 77.6333 36.2304 75.9127 36.5281C75.8728 36.5232 75.8728 36.5554 75.9127 36.5529Z"
            fill="#263238"
          />
          <path
            d="M75.3918 33.976C76.7592 34.0455 77.6135 34.2637 78.9884 34.6754V34.6605C77.474 34.0306 76.8538 33.9711 75.3843 33.9165C75.337 33.9363 75.3395 33.976 75.3918 33.976Z"
            fill="#263238"
          />
          <path
            d="M75.6134 38.8469C75.2572 39.0131 75.3444 39.1991 76.0244 39.3553C76.7043 39.5116 79.5313 39.5587 79.4317 40.5408C79.3321 41.5228 75.3444 41.3988 74.231 41.0516C73.1177 40.7044 71.4414 39.7521 71.4414 39.7521C72.231 39.6207 74.0841 39.1222 75.6134 38.8469Z"
            fill="#EB9481"
          />
          <path
            d="M54.5472 49.1239C53.8822 49.4637 53.0254 49.9919 49.1647 49.2355C48.9157 49.1859 48.6815 49.1264 48.4374 49.0545C44.8184 47.9732 40.4671 43.7349 40.2305 43.4348C40.2305 43.4348 45.9816 34.1521 53.3367 31.2332C54.2458 30.8736 55.7502 31.568 56.5747 32.4335C56.8711 32.7435 57.5162 35.0226 57.2696 36.8677C57.023 38.7129 55.2098 48.7841 54.5472 49.1239Z"
            fill="#1EBEC2"
          />
          <path
            d="M54.0289 36.7834C54.0567 37.1757 54.0016 37.5694 53.867 37.9391C53.8355 37.5467 53.8907 37.1522 54.0289 36.7834Z"
            fill="white"
          />
          <path
            d="M51.5208 43.105C51.5366 43.3002 51.5299 43.4966 51.5008 43.6903C51.4769 43.8854 51.4292 44.0769 51.3589 44.2607C51.3417 44.0647 51.3484 43.8673 51.3788 43.6729C51.4043 43.4788 51.4519 43.2883 51.5208 43.105Z"
            fill="white"
          />
          <path
            d="M47.2593 38.3259C47.2873 38.719 47.2322 39.1136 47.0974 39.4841C47.0661 39.0909 47.1213 38.6957 47.2593 38.3259Z"
            fill="white"
          />
          <path
            d="M55.6702 42.7825C55.6861 42.9785 55.6794 43.1757 55.6503 43.3702C55.6263 43.5654 55.5786 43.7569 55.5083 43.9406C55.4911 43.7446 55.4978 43.5473 55.5282 43.3529C55.5534 43.1579 55.601 42.9665 55.6702 42.7825Z"
            fill="white"
          />
          <path
            d="M50.1982 37.5075C50.3942 37.4909 50.5914 37.4967 50.7861 37.5249C50.9821 37.5496 51.1745 37.5979 51.3589 37.6687C50.965 37.6969 50.5694 37.642 50.1982 37.5075Z"
            fill="white"
          />
          <path
            d="M45.3613 42.0734C45.7553 42.0457 46.1507 42.1006 46.522 42.2346C46.1279 42.266 45.7317 42.211 45.3613 42.0734Z"
            fill="white"
          />
          <path
            d="M51.0596 47.016C51.4535 46.9878 51.8491 47.0427 52.2203 47.1772C51.8262 47.2081 51.4301 47.1531 51.0596 47.016Z"
            fill="white"
          />
          <path
            d="M43.8691 45.2203C44.2631 45.1927 44.6585 45.2476 45.0298 45.3815C44.6358 45.4125 44.2397 45.3575 43.8691 45.2203Z"
            fill="white"
          />
          <path
            d="M53.9912 32.3392C54.3852 32.3116 54.7806 32.3665 55.1519 32.5004C54.7579 32.5281 54.3625 32.4732 53.9912 32.3392Z"
            fill="white"
          />
          <path
            d="M52.5838 33.9216C52.4579 34.0723 52.314 34.2073 52.1554 34.3234C52.001 34.4422 51.834 34.5437 51.6572 34.6259C51.7823 34.4762 51.9244 34.3414 52.0807 34.2242C52.2365 34.1049 52.4052 34.0034 52.5838 33.9216Z"
            fill="white"
          />
          <path
            d="M44.9154 38.4177C44.7879 38.5671 44.6433 38.7011 44.4845 38.817C44.3317 38.9381 44.1644 39.0397 43.9863 39.1196C44.1145 38.9708 44.259 38.8369 44.4172 38.7203C44.5704 38.5997 44.7376 38.4981 44.9154 38.4177Z"
            fill="white"
          />
          <path
            d="M54.4915 40.4465C54.3641 40.5967 54.2195 40.7316 54.0606 40.8483C53.9075 40.9689 53.7402 41.0705 53.5625 41.1509C53.6899 41.0007 53.8345 40.8658 53.9934 40.7491C54.1474 40.6297 54.3145 40.5282 54.4915 40.4465Z"
            fill="white"
          />
          <path
            d="M48.2904 44.335C48.163 44.4851 48.0183 44.62 47.8595 44.7367C47.7061 44.8569 47.5389 44.9585 47.3613 45.0393C47.4887 44.8891 47.6334 44.7543 47.7922 44.6375C47.9462 44.5182 48.1133 44.4167 48.2904 44.335Z"
            fill="white"
          />
          <path
            d="M56.8685 35.1343C56.7411 35.2845 56.5965 35.4193 56.4376 35.536C56.2833 35.6549 56.1162 35.7563 55.9395 35.8386C56.0669 35.6884 56.2115 35.5536 56.3704 35.4368C56.5237 35.3166 56.691 35.2151 56.8685 35.1343Z"
            fill="white"
          />
          <path
            d="M56.7386 39.6404C56.5878 39.5135 56.4524 39.3695 56.3351 39.2113C56.2139 39.059 56.1118 38.8924 56.0312 38.7153C56.1826 38.8407 56.3181 38.9839 56.4347 39.1419C56.5537 39.2967 56.6556 39.4638 56.7386 39.6404Z"
            fill="white"
          />
          <path
            d="M42.9154 42.7454C42.7645 42.6185 42.6291 42.4745 42.5119 42.3163C42.392 42.163 42.2901 41.9966 42.208 41.8203C42.3588 41.9472 42.4943 42.0912 42.6115 42.2494C42.7322 42.4021 42.8342 42.5686 42.9154 42.7454Z"
            fill="white"
          />
          <path
            d="M55.057 46.4382C54.9056 46.3128 54.7701 46.1696 54.6535 46.0116C54.5341 45.858 54.4322 45.6916 54.3496 45.5156C54.5004 45.6425 54.6359 45.7865 54.7531 45.9447C54.8733 46.0969 54.9753 46.2625 55.057 46.4382Z"
            fill="white"
          />
          <path
            d="M48.972 35.9106C48.8212 35.7846 48.6858 35.6414 48.5685 35.484C48.4497 35.33 48.3478 35.1637 48.2646 34.988C48.416 35.1134 48.5515 35.2566 48.6681 35.4146C48.787 35.5686 48.8889 35.7349 48.972 35.9106Z"
            fill="white"
          />
          <path
            d="M49.0794 48.5412C48.9286 48.4144 48.7932 48.2704 48.6759 48.1122C48.5565 47.9586 48.4545 47.7923 48.3721 47.6162C48.5234 47.7416 48.6589 47.8848 48.7756 48.0428C48.8954 48.197 48.9974 48.3642 49.0794 48.5412Z"
            fill="white"
          />
          <path
            d="M50.1131 41.0913C49.9637 40.9637 49.8292 40.8198 49.7121 40.6623C49.5905 40.5101 49.4884 40.3435 49.4082 40.1663C49.5583 40.2932 49.6928 40.4372 49.8092 40.5953C49.9303 40.7478 50.0323 40.9143 50.1131 41.0913Z"
            fill="white"
          />
          <path
            d="M55.2268 34.9061C54.2877 34.7325 53.406 32.8005 53.2939 31.501C53.2939 31.4117 53.7323 30.7049 54.233 29.8196C54.5368 29.2814 54.8581 28.6738 55.1147 28.0985C55.167 27.9819 55.4733 28.3762 55.4733 28.3762L56.1409 28.8722L58.3452 30.5561C57.8202 31.1833 57.3744 31.8721 57.0176 32.6071C56.9824 32.6867 56.9556 32.7699 56.9379 32.8551C56.9369 32.8691 56.9369 32.8832 56.9379 32.8972C56.8009 33.3883 56.1309 35.0722 55.2268 34.9061Z"
            fill="#EB9481"
          />
          <path
            d="M56.9381 32.8676C56.9371 32.8816 56.9371 32.8957 56.9381 32.9097C56.8072 32.8715 56.6798 32.8226 56.557 32.7634C54.1435 31.6375 55.207 28.4185 55.207 28.4185L56.1535 28.8847L58.3578 30.5686C57.8329 31.1958 57.3871 31.8846 57.0303 32.6196C56.9907 32.6987 56.9598 32.7819 56.9381 32.8676Z"
            fill="#263238"
          />
          <path
            d="M60.8779 23.7039C60.8779 23.7039 61.9813 24.4007 61.9863 25.6407C61.9913 26.8807 61.4882 28.0935 61.3835 28.1381C61.2789 28.1827 60.8779 23.7039 60.8779 23.7039Z"
            fill="#263238"
          />
          <path
            d="M55.4038 24.3488C54.7412 25.6508 54.7761 29.7552 55.603 30.8117C56.8036 32.3443 59.115 32.8726 60.5123 31.3573C61.8647 29.8891 61.7253 24.5422 60.7614 23.5453C59.3591 22.0722 56.3851 22.4218 55.4038 24.3488Z"
            fill="#EB9481"
          />
          <path
            d="M58.9202 27.6348C58.9202 27.6348 58.8978 27.6496 58.9003 27.6596C58.9152 27.9398 58.8854 28.2622 58.6338 28.3614C58.6338 28.3614 58.6338 28.3788 58.6338 28.3763C58.9451 28.3267 58.98 27.8976 58.9202 27.6348Z"
            fill="#263238"
          />
          <path
            d="M58.6634 27.3496C58.2101 27.3248 58.1952 28.2275 58.6161 28.2499C59.0371 28.2722 59.042 27.3695 58.6634 27.3496Z"
            fill="#263238"
          />
          <path
            d="M60.457 27.6248C60.457 27.6248 60.4794 27.6248 60.4794 27.6496C60.4644 27.9298 60.4968 28.2522 60.7509 28.3489C60.7509 28.3489 60.7509 28.3663 60.7509 28.3638C60.437 28.3167 60.3997 27.8876 60.457 27.6248Z"
            fill="#263238"
          />
          <path
            d="M60.7135 27.337C61.1643 27.3098 61.1867 28.2125 60.7683 28.2373C60.3498 28.2621 60.3349 27.3594 60.7135 27.337Z"
            fill="#263238"
          />
          <path
            d="M58.3803 26.6626C58.4994 26.6289 58.6166 26.5891 58.7315 26.5435C58.8623 26.52 58.9815 26.4537 59.0703 26.3551C59.0918 26.319 59.1008 26.2768 59.0958 26.2351C59.0909 26.1934 59.0723 26.1545 59.0429 26.1244C58.9755 26.0734 58.8956 26.0412 58.8115 26.0312C58.7275 26.0212 58.6422 26.0337 58.5646 26.0674C58.3966 26.1122 58.2511 26.2173 58.1562 26.3625C58.1372 26.397 58.1286 26.4363 58.1314 26.4755C58.1341 26.5148 58.1481 26.5525 58.1717 26.584C58.1953 26.6156 58.2275 26.6398 58.2645 26.6537C58.3014 26.6677 58.3417 26.6707 58.3803 26.6626Z"
            fill="#263238"
          />
          <path
            d="M61.0223 27.0619C60.9011 27.0349 60.7814 27.0018 60.6637 26.9627C60.5324 26.9454 60.4106 26.8852 60.3174 26.7916C60.2934 26.7571 60.2819 26.7155 60.2846 26.6737C60.2873 26.6318 60.3041 26.5921 60.3324 26.5609C60.3966 26.5063 60.4745 26.4698 60.5577 26.4554C60.641 26.441 60.7266 26.4492 60.8056 26.4791C60.976 26.5143 61.127 26.6116 61.229 26.7519C61.2504 26.7851 61.2616 26.8238 61.2612 26.8632C61.2609 26.9027 61.2491 26.9411 61.2272 26.974C61.2052 27.0068 61.1742 27.0326 61.1379 27.0482C61.1015 27.0639 61.0613 27.0686 61.0223 27.0619Z"
            fill="#263238"
          />
          <path
            d="M58.2824 30.286C58.3497 30.3529 58.4144 30.4422 58.5165 30.4521C58.6213 30.4521 58.7248 30.4301 58.8204 30.3876C58.8204 30.3876 58.8379 30.3876 58.8204 30.4025C58.7796 30.457 58.7247 30.4995 58.6615 30.5252C58.5983 30.551 58.5292 30.5592 58.4618 30.5488C58.4049 30.5334 58.3538 30.5017 58.3148 30.4576C58.2758 30.4135 58.2507 30.359 58.2426 30.3008C58.2406 30.2956 58.2408 30.2898 58.2431 30.2846C58.2455 30.2795 58.2497 30.2755 58.255 30.2736C58.2603 30.2716 58.2662 30.2718 58.2713 30.2741C58.2764 30.2764 58.2804 30.2807 58.2824 30.286Z"
            fill="#263238"
          />
          <path
            d="M59.9116 29.0906C59.9116 29.0906 59.9241 29.5072 59.9116 29.7031C59.5289 29.6627 59.1424 29.676 58.7634 29.7428C58.6737 29.7626 58.6837 29.6907 58.7858 29.6436C59.0911 29.5047 59.4311 29.4598 59.7622 29.5146C59.7821 29.4626 59.7298 28.8698 59.7622 28.8723C59.9128 28.9018 60.0587 28.9518 60.1955 29.0211C60.1955 28.1482 60.0561 27.2851 60.0685 26.4122C60.0685 26.3824 60.1158 26.3774 60.1208 26.4122C60.2978 27.3356 60.3813 28.2745 60.3699 29.2146C60.3724 29.3212 59.9863 29.1302 59.9116 29.0906Z"
            fill="#263238"
          />
          <path
            d="M59.3515 29.5542C59.2522 29.8142 59.068 30.0335 58.8284 30.1767C58.4523 30.3279 58.3303 29.9882 58.7089 29.6807C58.9074 29.5807 59.1297 29.537 59.3515 29.5542Z"
            fill="#263238"
          />
          <path
            d="M58.9601 30.1C58.9204 30.1322 58.8759 30.1581 58.8281 30.1769C58.4819 30.3157 58.3449 30.0405 58.6239 29.7627C58.8132 29.7776 59.0299 29.847 58.9601 30.1Z"
            fill="#FF99BA"
          />
          <path
            d="M55.2146 27.8579C55.6704 27.9968 56.1935 26.6328 56.3429 26.1219C56.4725 25.6607 56.6219 24.195 56.6443 24.0933C56.6667 23.9916 58.6369 25.3903 59.7777 25.058C60.9184 24.7257 61.693 23.6965 61.7105 23.2179C61.7279 22.7392 60.3007 21.524 59.0678 21.462C57.8349 21.4 56.1636 22.95 56.1636 22.95C56.3655 22.7219 56.5487 22.4781 56.7116 22.2209C56.6916 22.1663 55.8946 22.4838 55.7477 23.0492C55.7477 23.0492 55.9071 22.3375 55.8473 22.3251C55.7875 22.3127 55.1673 22.9203 55.3068 23.3815C55.3068 23.3815 54.5895 23.9991 54.5247 24.6761C54.4599 25.3531 54.6791 27.6943 55.2146 27.8579Z"
            fill="#263238"
          />
          <path
            d="M60.5938 24.8002C60.2546 24.9834 59.8892 25.1138 59.5104 25.1871C59.0851 25.2248 58.6572 25.1567 58.265 24.9887C57.8699 24.8367 57.503 24.6205 57.179 24.3488C56.8926 24.1157 56.6361 23.8305 56.3297 23.6222C56.2525 23.5676 56.1653 23.6792 56.2126 23.7487C56.7238 24.4675 57.4539 25.0032 58.2949 25.2764C58.6855 25.4032 59.1024 25.4269 59.5049 25.3451C59.9075 25.2634 60.2818 25.0791 60.5913 24.8101C60.5913 24.8101 60.5988 24.8002 60.5938 24.8002Z"
            fill="#263238"
          />
          <path
            d="M55.6896 27.7365C55.6896 27.7365 54.9823 26.308 54.3446 26.5386C53.707 26.7693 54.0956 28.7458 54.7506 29.1079C54.8309 29.1596 54.9208 29.1946 55.0149 29.2109C55.1091 29.2271 55.2056 29.2243 55.2986 29.2025C55.3917 29.1808 55.4793 29.1405 55.5564 29.0842C55.6334 29.0279 55.6982 28.9567 55.7469 28.8748L55.6896 27.7365Z"
            fill="#EB9481"
          />
          <path
            d="M54.4725 27.1016C54.4725 27.1016 54.4575 27.1016 54.4725 27.1214C54.9258 27.3892 55.1101 27.8654 55.2197 28.3614C55.199 28.3089 55.1672 28.2615 55.1264 28.2224C55.0855 28.1834 55.0366 28.1536 54.9831 28.1352C54.9296 28.1168 54.8727 28.1102 54.8163 28.1159C54.76 28.1215 54.7055 28.1393 54.6568 28.168C54.6418 28.168 54.6568 28.1952 54.6568 28.1952C54.7459 28.1814 54.8371 28.1955 54.9178 28.2355C54.9986 28.2755 55.0649 28.3394 55.1076 28.4184C55.1789 28.5509 55.2357 28.6906 55.277 28.8351C55.2919 28.8822 55.3741 28.8698 55.3666 28.8177C55.4737 28.2002 55.125 27.2652 54.4725 27.1016Z"
            fill="#263238"
          />
          <path
            d="M51.0199 34.1149C50.5217 36.9248 53.5803 46.3909 55.5406 48.1592C58.4572 50.788 63.8497 52.5165 65.8049 53.0795C66.6567 53.3275 69.0129 47.3581 68.1511 46.9638C66.3055 46.128 60.5718 44.3425 60.0264 43.8961C59.4809 43.4497 56.1931 38.7203 54.7286 35.9972C52.7684 32.3318 51.2664 32.6939 51.0199 34.1149Z"
            fill="#EB9481"
          />
          <path
            d="M66.6986 46.438C66.6986 46.438 69.2441 47.0853 70.8855 47.5837C71.8021 47.864 73.3314 48.4815 73.9117 48.9924C74.7785 49.7587 77.9119 53.5085 77.0152 54.2847C76.2032 54.989 73.9217 51.4253 73.9217 51.4253C73.9217 51.4253 76.542 54.8179 75.4161 55.485C74.2903 56.1521 72.2305 51.7849 72.2305 51.7849C72.2305 51.7849 74.8433 55.3313 73.5655 55.8347C72.5991 56.2141 70.5268 52.3627 70.5268 52.3627C70.5268 52.3627 72.7535 55.4255 71.7722 55.8595C70.6912 56.3406 68.5566 52.9034 68.5566 52.9034C65.8866 53.5903 64.3224 52.829 63.2937 52.1594C63.0521 51.9957 66.6986 46.438 66.6986 46.438Z"
            fill="#EB9481"
          />
          <path
            d="M73.0902 50.1928C73.414 50.5797 73.7428 50.9715 74.0292 51.3857C74.3157 51.7999 74.5872 52.2264 74.8337 52.6654C75.1678 53.2332 75.4353 53.8373 75.6308 54.4659C75.2024 53.3747 74.1986 51.8743 73.9122 51.4601C73.6257 51.046 73.3592 50.6169 73.0753 50.2027C73.0678 50.1928 73.0828 50.1829 73.0902 50.1928Z"
            fill="#263238"
          />
          <path
            d="M71.5685 51.1972C72.1214 51.6337 73.2796 53.2556 73.7254 54.3443C73.7454 54.3889 73.7254 54.3865 73.6931 54.3443C73.3444 53.8061 71.9296 51.7229 71.556 51.2046C71.5485 51.1972 71.561 51.1897 71.5685 51.1972Z"
            fill="#263238"
          />
          <path
            d="M70.106 51.832C70.7931 52.5495 71.3359 53.3913 71.7051 54.312C71.7225 54.3566 71.6877 54.3492 71.6603 54.312C71.1447 53.4762 70.7462 52.824 70.0786 51.8543C70.0687 51.832 70.0911 51.8097 70.106 51.832Z"
            fill="#263238"
          />
          <path
            d="M53.7991 34.3209C51.525 31.1192 50.1651 32.3047 50.6209 35.7816C51.0493 39.0329 52.1925 42.9067 52.1925 42.9067L57.9212 40.139C57.9212 40.139 55.2462 36.3719 53.7991 34.3209Z"
            fill="#1EBEC2"
          />
          <path
            d="M55.1822 35.5806C55.2577 35.7614 55.312 35.9503 55.3441 36.1435C55.3791 36.3374 55.3916 36.5346 55.3815 36.7313C55.3068 36.5495 55.2533 36.3598 55.2221 36.1658C55.185 35.9731 55.1716 35.7765 55.1822 35.5806Z"
            fill="white"
          />
          <path
            d="M51.7871 37.5275C52.1527 37.3794 52.5461 37.3117 52.9403 37.3291C52.7586 37.4034 52.5689 37.4567 52.3749 37.4878C52.1813 37.5246 51.9839 37.5379 51.7871 37.5275Z"
            fill="white"
          />
          <path
            d="M51.9338 32.5476C51.7795 32.91 51.5494 33.2356 51.2588 33.5024C51.413 33.14 51.6431 32.8145 51.9338 32.5476Z"
            fill="white"
          />
          <path
            d="M56.7883 39.0229C56.7127 39.2043 56.6166 39.3766 56.5018 39.5363C56.3901 39.6981 56.2597 39.8463 56.1133 39.9777C56.2675 39.6153 56.4976 39.2898 56.7883 39.0229Z"
            fill="white"
          />
          <path
            d="M52.8037 40.9648C52.6211 40.8904 52.448 40.7947 52.2881 40.6796C52.1255 40.5685 51.9767 40.4386 51.8447 40.2927C52.2087 40.4463 52.5357 40.6754 52.8037 40.9648Z"
            fill="white"
          />
          <path
            d="M54.5467 35.2856C54.8531 35.7048 55.1694 36.114 55.4832 36.5256C55.4035 36.3173 55.3338 36.1065 55.274 35.8932H55.289C55.3512 36.0569 55.4235 36.2181 55.4832 36.3892L55.5729 36.6372C55.5806 36.6542 55.5873 36.6716 55.5928 36.6893C55.8419 37.0092 56.091 37.3292 56.3201 37.6565C56.6016 38.0484 56.8731 38.4452 57.1471 38.842C57.421 39.2388 57.6975 39.7323 57.9939 40.1316C58.0213 40.1663 57.4958 40.3796 57.4385 40.4068C57.3812 40.4341 57.3513 40.387 57.4061 40.3696C57.4609 40.3523 57.8793 40.0968 57.8843 40.0919C57.6103 39.6901 57.294 39.3206 57.0076 38.9312C56.7211 38.5419 56.4372 38.1525 56.1607 37.7582C55.6003 36.9547 55.0872 36.1214 54.5293 35.3154L54.5467 35.2856Z"
            fill="#263238"
          />
          <path
            d="M50.7562 38.0831C50.8434 38.2517 50.938 38.4179 51.0053 38.5915L51.0999 38.8072C50.9679 38.1897 50.8509 37.5672 50.7139 36.9497C50.9779 37.9417 51.2444 38.956 51.4885 39.9629C51.7201 40.9251 52.0016 41.8973 52.1361 42.8794C52.3098 42.8035 52.4898 42.7429 52.6741 42.6983C52.4891 42.8175 52.29 42.9133 52.0813 42.9835C51.781 41.9849 51.5316 40.9717 51.3341 39.948C51.2718 39.6703 51.2145 39.3925 51.1547 39.1147C51.09 38.9461 51.0128 38.7849 50.9355 38.6187C50.8583 38.4526 50.7886 38.2666 50.7188 38.0905C50.7338 38.0806 50.7512 38.0707 50.7562 38.0831Z"
            fill="#263238"
          />
          <path
            d="M52.2775 41.9494C53.0745 41.503 56.4046 39.7868 57.1494 39.4694C57.2017 39.4471 57.2291 39.4694 57.1768 39.5041C55.596 40.4187 53.9663 41.2466 52.2949 41.9841C52.275 41.9891 52.2551 41.9618 52.2775 41.9494Z"
            fill="#263238"
          />
          <path
            d="M143.547 107.148H67.6592L78.6309 45.1855H154.519L143.547 107.148Z"
            fill="#1EBEC2"
          />
          <path
            d="M104.604 38.7673H79.7691L78.6309 45.1856H105.209L104.604 38.7673Z"
            fill="#1EBEC2"
          />
          <g opacity="0.1">
            <path
              d="M143.547 107.148H67.6592L78.6309 45.1855H154.519L143.547 107.148Z"
              fill="black"
            />
            <path
              d="M104.604 38.7673H79.7691L78.6309 45.1856H105.209L104.604 38.7673Z"
              fill="black"
            />
          </g>
          <path
            d="M77.0884 41.3861C76.9223 40.6764 76.9223 39.9382 77.0884 39.2285C77.2545 39.9382 77.2545 40.6764 77.0884 41.3861Z"
            fill="#263238"
          />
          <path
            d="M74.8819 42.0212C74.6283 41.7594 74.4097 41.4659 74.2318 41.1482C74.0451 40.8372 73.8987 40.5039 73.7959 40.1562C74.0503 40.4166 74.2688 40.7093 74.446 41.0267C74.6322 41.3389 74.7787 41.673 74.8819 42.0212Z"
            fill="#263238"
          />
          <path
            d="M73.2876 43.6704C72.5878 43.4585 71.9461 43.0894 71.4121 42.5916C71.7613 42.6926 72.0961 42.8376 72.4084 43.0231C72.7275 43.2014 73.0229 43.4189 73.2876 43.6704Z"
            fill="#263238"
          />
          <path
            d="M72.7294 45.8923C72.0167 46.0577 71.2753 46.0577 70.5625 45.8923C71.2753 45.727 72.0167 45.727 72.7294 45.8923Z"
            fill="#263238"
          />
          <path
            d="M73.3779 48.0896C73.1138 48.3408 72.8193 48.5582 72.5012 48.7369C72.1889 48.9223 71.8541 49.0673 71.5049 49.1684C71.7679 48.9159 72.0626 48.6983 72.3816 48.5211C72.6935 48.3348 73.0284 48.1897 73.3779 48.0896Z"
            fill="#263238"
          />
          <path
            d="M75.0317 49.6743C74.8197 50.3722 74.4489 51.0121 73.9482 51.5442C74.0497 51.1961 74.1962 50.8627 74.3841 50.5522C74.5617 50.2334 74.7793 49.9384 75.0317 49.6743Z"
            fill="#263238"
          />
          <path
            d="M77.2629 50.2224C77.3497 50.5754 77.3916 50.9378 77.3874 51.3012C77.3928 51.6647 77.351 52.0273 77.2629 52.38C77.1736 52.0275 77.1318 51.6647 77.1384 51.3012C77.1342 50.9378 77.1761 50.5754 77.2629 50.2224Z"
            fill="#263238"
          />
          <path
            d="M79.4697 49.5999C79.7233 49.8618 79.9418 50.1552 80.1198 50.4729C80.307 50.7834 80.4526 51.1169 80.5532 51.4649C80.0525 50.9328 79.6818 50.2929 79.4697 49.595V49.5999Z"
            fill="#263238"
          />
          <path
            d="M81.0615 47.9385C81.411 48.0386 81.746 48.1837 82.0578 48.37C82.3769 48.5472 82.6716 48.7648 82.9346 49.0173C82.585 48.9172 82.2501 48.7721 81.9383 48.5858C81.6192 48.4086 81.3245 48.191 81.0615 47.9385Z"
            fill="#263238"
          />
          <path
            d="M81.6123 45.7163C82.3259 45.551 83.0681 45.551 83.7817 45.7163C83.0681 45.8816 82.3259 45.8816 81.6123 45.7163Z"
            fill="#263238"
          />
          <path
            d="M80.9747 43.519C81.2384 43.268 81.533 43.0513 81.8514 42.8742C82.1627 42.6861 82.4977 42.5401 82.8477 42.4402C82.3133 42.9387 81.6707 43.3079 80.9697 43.519H80.9747Z"
            fill="#263238"
          />
          <path
            d="M79.3184 41.9343C79.4209 41.587 79.5665 41.2538 79.7517 40.9423C79.9297 40.6246 80.1482 40.3312 80.4018 40.0693C80.3013 40.4174 80.1556 40.7508 79.9684 41.0613C79.7905 41.379 79.572 41.6724 79.3184 41.9343Z"
            fill="#263238"
          />
          <path
            d="M143.434 107.148H67.3848L56.585 47.4348H132.637L143.434 107.148Z"
            fill="#1EBEC2"
          />
          <path
            d="M82.9391 83.938C84.6847 83.938 86.0998 82.529 86.0998 80.7909C86.0998 79.0528 84.6847 77.6438 82.9391 77.6438C81.1934 77.6438 79.7783 79.0528 79.7783 80.7909C79.7783 82.529 81.1934 83.938 82.9391 83.938Z"
            fill="#263238"
          />
          <path
            d="M107.926 83.938C109.672 83.938 111.087 82.529 111.087 80.7909C111.087 79.0528 109.672 77.6438 107.926 77.6438C106.181 77.6438 104.766 79.0528 104.766 80.7909C104.766 82.529 106.181 83.938 107.926 83.938Z"
            fill="#263238"
          />
          <path
            d="M99.9739 84.4414L99.7996 84.1115C99.7846 84.0818 98.1507 81.076 94.8654 81.076C91.8765 81.076 91.1293 83.9057 91.1094 84.0272L91.0197 84.3868L90.2949 84.2132L90.3821 83.8511C90.3821 83.8164 91.2738 80.332 94.8654 80.332C98.6015 80.332 100.387 83.6255 100.462 83.7668L100.636 84.0942L99.9739 84.4414Z"
            fill="#263238"
          />
          <path
            d="M138.413 80.5503L138.36 80.3023C138.522 80.2676 138.682 80.2304 138.841 80.1882L138.903 80.4362C138.734 80.4784 138.577 80.5156 138.413 80.5503Z"
            fill="#263238"
          />
          <path
            d="M139.867 80.151L139.787 79.9179C140.099 79.8112 140.41 79.6947 140.711 79.5682L140.808 79.7964C140.502 79.9253 140.186 80.0444 139.867 80.151ZM141.723 79.3599L141.611 79.1416C141.902 78.9904 142.193 78.8267 142.47 78.6456L142.599 78.8564C142.315 79.0524 142.019 79.2185 141.723 79.3599ZM143.436 78.3108L143.289 78.11C143.558 77.914 143.817 77.7082 144.061 77.4974L144.226 77.6834C143.964 77.9091 143.715 78.1199 143.434 78.3208L143.436 78.3108ZM144.956 76.9915L144.774 76.8204C145.003 76.5724 145.22 76.3244 145.419 76.0764L145.616 76.2276C145.409 76.5005 145.187 76.7559 144.961 77.0014L144.956 76.9915ZM146.188 75.4043L145.977 75.2728C146.149 74.9958 146.302 74.7075 146.435 74.4098L146.664 74.5115C146.523 74.8218 146.364 75.1233 146.186 75.4142L146.188 75.4043ZM147.013 73.5641L146.764 73.4947C146.855 73.1835 146.922 72.866 146.966 72.5448L147.215 72.5771C147.173 72.9143 147.105 73.2477 147.01 73.5741L147.013 73.5641ZM147.289 71.5801H147.04V71.5082C147.04 71.2081 147.023 70.9031 146.993 70.603L147.242 70.5782C147.275 70.8871 147.291 71.1976 147.292 71.5082L147.289 71.5801ZM146.841 69.6383C146.774 69.3185 146.691 69.0024 146.592 68.6909L146.841 68.6165C146.943 68.9389 147.03 69.2663 147.09 69.5862L146.841 69.6383ZM146.251 67.7708C146.131 67.4782 146.002 67.1781 145.842 66.8756L146.066 66.764C146.218 67.0715 146.358 67.379 146.48 67.6766L146.251 67.7708ZM145.379 66.0026C145.225 65.7323 145.055 65.4471 144.881 65.1544L145.093 65.023C145.274 65.3181 145.446 65.6058 145.591 65.8811L145.379 66.0026ZM144.338 64.3187C144.156 64.0459 143.972 63.7706 143.782 63.4953L143.989 63.3564C144.178 63.6317 144.363 63.907 144.545 64.1848L144.338 64.3187ZM143.217 62.6769C143.03 62.4041 142.841 62.1288 142.657 61.856L142.863 61.7172C143.048 61.99 143.234 62.2653 143.421 62.5356L143.217 62.6769ZM142.104 61.0252C141.922 60.7475 141.745 60.4648 141.571 60.182L141.782 60.0531C141.957 60.3358 142.134 60.6136 142.313 60.8913L142.104 61.0252ZM141.065 59.3215C140.896 59.0214 140.739 58.7238 140.597 58.4386L140.821 58.327C140.96 58.6097 141.117 58.9024 141.282 59.2L141.065 59.3215ZM140.181 57.5359C140.049 57.2259 139.932 56.9109 139.822 56.6034L140.071 56.524C140.176 56.8241 140.293 57.1341 140.422 57.4392L140.181 57.5359ZM139.533 55.6436C139.451 55.3212 139.379 54.9914 139.324 54.6516L139.573 54.612C139.628 54.9294 139.695 55.2518 139.777 55.5693L139.533 55.6436ZM139.199 53.6596C139.175 53.3546 139.162 53.0471 139.162 52.7396V52.6577H139.411V52.7371C139.411 53.0372 139.411 53.3397 139.449 53.6373L139.199 53.6596ZM139.449 51.6756L139.199 51.6509C139.199 51.5839 139.212 51.5144 139.219 51.4425C139.249 51.1772 139.287 50.9118 139.331 50.6588L139.581 50.701C139.538 50.949 139.501 51.2094 139.471 51.4698C139.481 51.5467 139.481 51.6136 139.461 51.6831L139.449 51.6756ZM139.795 49.7462L139.546 49.6793C139.638 49.3519 139.745 49.032 139.864 48.7269L140.096 48.8162C139.983 49.1233 139.886 49.4362 139.807 49.7536L139.795 49.7462ZM152.206 48.3004C152.067 48.3004 151.922 48.2805 151.78 48.2607C151.586 48.2334 151.392 48.2012 151.2 48.164L151.25 47.916C151.434 47.9507 151.626 47.9829 151.815 48.0102C151.95 48.0276 152.087 48.04 152.219 48.0474L152.206 48.3004ZM153.23 48.2235L153.177 47.9755C153.49 47.9112 153.79 47.7956 154.064 47.6333L154.194 47.844C153.9 48.0248 153.579 48.1556 153.242 48.2309L153.23 48.2235ZM140.512 47.9284L140.29 47.8118C140.449 47.516 140.624 47.2295 140.816 46.9537L141.02 47.0951C140.838 47.3652 140.673 47.6459 140.525 47.9358L140.512 47.9284ZM150.226 47.9135C149.904 47.8119 149.589 47.6936 149.279 47.5588L149.382 47.3307C149.681 47.4632 149.988 47.5783 150.301 47.6754L150.226 47.9135ZM154.958 47.1397L154.752 47.0009C154.929 46.7447 155.034 46.4457 155.056 46.1353L155.305 46.1527C155.283 46.5085 155.166 46.852 154.966 47.1472L154.958 47.1397ZM148.383 47.1025C148.091 46.9338 147.809 46.7492 147.538 46.5495L147.685 46.3511C147.949 46.5448 148.224 46.7236 148.507 46.8868L148.383 47.1025ZM141.633 46.3288L141.449 46.1626C141.674 45.9129 141.914 45.6768 142.168 45.4558L142.333 45.6418C142.088 45.8595 141.857 46.0914 141.64 46.3362L141.633 46.3288ZM146.761 45.9096C146.513 45.6821 146.278 45.4412 146.056 45.188L146.243 45.0243C146.459 45.2703 146.687 45.5045 146.928 45.7261L146.761 45.9096ZM154.869 45.2376C154.726 44.9542 154.529 44.7014 154.288 44.4936L154.453 44.3076C154.717 44.5355 154.935 44.8127 155.093 45.1235L154.869 45.2376ZM143.107 45.0416L142.965 44.8383C143.244 44.6489 143.533 44.4742 143.83 44.315L143.947 44.5333C143.661 44.6907 143.383 44.8629 143.115 45.0491L143.107 45.0416ZM145.434 44.3969C145.339 44.2629 145.247 44.1265 145.16 43.9852L144.836 44.1116L144.741 43.8835L145.028 43.7694C144.983 43.695 144.938 43.6206 144.896 43.5462L145.112 43.4247C145.162 43.5115 145.212 43.5983 145.264 43.6727C145.404 43.6231 145.546 43.576 145.69 43.5313L145.763 43.7793C145.641 43.8165 145.513 43.8562 145.399 43.8984C145.476 44.0199 145.556 44.1464 145.648 44.253L145.434 44.3969ZM153.486 43.9703C153.245 43.8507 152.996 43.7496 152.739 43.6677L152.575 43.6156L152.647 43.3676L152.816 43.4222C153.083 43.5069 153.343 43.6122 153.593 43.7372L153.486 43.9703ZM146.717 43.5264L146.664 43.2784C146.986 43.2064 147.319 43.1469 147.661 43.0998L147.698 43.3478C147.369 43.3999 147.043 43.4619 146.724 43.5338L146.717 43.5264ZM151.623 43.3924C151.312 43.3379 150.983 43.2957 150.647 43.266L150.667 43.018C151.013 43.0477 151.349 43.0899 151.663 43.1469L151.623 43.3924ZM148.672 43.2486L148.654 43.0006C148.951 42.9832 149.247 42.9733 149.541 42.9733H149.663V43.2213H149.544C149.262 43.2288 148.968 43.2362 148.679 43.256L148.672 43.2486ZM144.462 42.6559C144.328 42.3533 144.213 42.0384 144.101 41.7184L144.35 41.6416C144.455 41.9541 144.572 42.2616 144.702 42.5567L144.462 42.6559ZM143.832 40.7513C143.758 40.4313 143.695 40.099 143.648 39.7593L143.897 39.7245C143.944 40.0519 144.004 40.3768 144.076 40.6917L143.832 40.7513ZM143.553 38.7673C143.541 38.5441 143.533 38.3159 143.533 38.0877C143.533 37.9811 143.533 37.872 143.533 37.7653H143.782C143.782 37.872 143.782 37.9761 143.782 38.0828C143.782 38.306 143.782 38.5316 143.8 38.7474L143.553 38.7673ZM143.85 36.7832L143.601 36.7584C143.635 36.4311 143.683 36.0963 143.74 35.7664L143.989 35.8086C143.922 36.1384 143.875 36.4559 143.842 36.7882L143.85 36.7832ZM144.191 34.8464L143.942 34.7868C144.022 34.4669 144.114 34.1445 144.216 33.8221L144.465 33.899C144.353 34.2239 144.261 34.5388 144.183 34.8513L144.191 34.8464ZM144.789 32.969L144.557 32.8797C144.679 32.5697 144.806 32.2597 144.958 31.9596L145.182 32.0688C145.033 32.3664 144.901 32.6689 144.781 32.9839L144.789 32.969ZM145.646 31.2008L145.429 31.0743C145.598 30.7891 145.78 30.5039 145.969 30.2311L146.174 30.3724C145.979 30.6452 145.802 30.923 145.638 31.2057L145.646 31.2008ZM146.769 29.5863L146.575 29.43C146.784 29.182 147.008 28.9192 147.24 28.686L147.419 28.8572C147.185 29.0903 146.966 29.3383 146.761 29.5912L146.769 29.5863ZM148.124 28.1578L147.957 27.9743C148.206 27.7536 148.455 27.5353 148.722 27.3245L148.876 27.5204C148.609 27.7312 148.355 27.947 148.116 28.1628L148.124 28.1578ZM149.671 26.9327L149.529 26.7268C149.8 26.5408 150.084 26.3573 150.373 26.1837L150.5 26.3945C150.211 26.5706 149.942 26.7516 149.663 26.9376L149.671 26.9327ZM151.362 25.9084L151.245 25.6902C151.539 25.534 151.842 25.3852 152.146 25.2463L152.251 25.472C151.935 25.6133 151.643 25.7621 151.354 25.9134L151.362 25.9084ZM153.163 25.0851L153.07 24.852C153.384 24.7304 153.701 24.604 154.014 24.5122L154.094 24.7602C153.778 24.8544 153.464 24.9685 153.155 25.09L153.163 25.0851Z"
            fill="#263238"
          />
          <path
            d="M155.083 24.4578L155.021 24.2098C155.329 24.1304 155.519 24.0957 155.519 24.0957L155.563 24.3437C155.563 24.3437 155.384 24.3809 155.083 24.4578Z"
            fill="#263238"
          />
          <path
            d="M159.487 22.8557C158.852 20.8965 154.598 21.6008 155.427 24.1626C156.257 26.7245 160.122 24.8174 159.487 22.8557Z"
            fill="#263238"
          />
          <path
            d="M153.113 22.072C153.145 21.2114 154.346 20.5493 156.045 20.8543C157.743 21.1593 159.34 22.3001 159.34 22.3001C159.34 22.3001 157.664 23.312 155.947 23.498C154.231 23.684 153.081 22.9301 153.113 22.072Z"
            fill="#EBEBEB"
          />
          <path
            d="M159.34 22.2952C158.458 22.2952 157.579 22.2704 156.7 22.2432C155.821 22.2159 154.939 22.1712 154.06 22.1018C154.941 22.1018 155.823 22.1241 156.702 22.1514C157.581 22.1787 158.463 22.2233 159.34 22.2952Z"
            fill="#263238"
          />
          <path
            d="M154.819 21.3057C155.32 21.5441 155.792 21.8377 156.227 22.1811C155.976 22.0641 155.733 21.9315 155.499 21.7843C155.263 21.6381 155.036 21.4783 154.819 21.3057Z"
            fill="#263238"
          />
          <path
            d="M157.128 22.2134C156.677 22.577 156.189 22.8913 155.671 23.1508C156.124 22.7868 156.615 22.4725 157.135 22.2134H157.128Z"
            fill="#263238"
          />
          <path
            d="M157.385 21.7297C157.636 21.8499 157.856 22.0265 158.027 22.2456C157.902 22.1865 157.784 22.1124 157.676 22.0249C157.568 21.9379 157.47 21.8388 157.385 21.7297Z"
            fill="#263238"
          />
          <path
            d="M154.732 27.1685C155.263 27.848 156.625 27.6843 157.823 26.4492C159.021 25.2142 159.656 23.3567 159.656 23.3567C159.656 23.3567 157.694 23.5055 156.197 24.3487C154.7 25.1919 154.199 26.4865 154.732 27.1685Z"
            fill="#EBEBEB"
          />
          <path
            d="M159.656 23.3567C158.938 23.8527 158.241 24.4033 157.541 24.9365C156.841 25.4697 156.156 26.0202 155.486 26.5881C156.204 26.0921 156.901 25.544 157.598 25.0108C158.296 24.4776 158.976 23.9271 159.656 23.3567Z"
            fill="#263238"
          />
          <path
            d="M156.562 26.784C156.696 26.5431 156.815 26.2947 156.919 26.04C157.025 25.7846 157.115 25.5229 157.188 25.2563C157.054 25.497 156.935 25.7455 156.831 26.0003C156.727 26.2561 156.637 26.5178 156.562 26.784Z"
            fill="#263238"
          />
          <path
            d="M157.912 24.7107C157.33 24.6796 156.745 24.7104 156.169 24.8024C156.459 24.8198 156.75 24.8198 157.041 24.8024C157.333 24.7882 157.624 24.7576 157.912 24.7107Z"
            fill="#263238"
          />
          <path
            d="M158.394 24.9562C158.46 24.8338 158.512 24.7039 158.548 24.5694C158.585 24.4358 158.607 24.2985 158.613 24.1602C158.48 24.4057 158.405 24.6778 158.394 24.9562Z"
            fill="#263238"
          />
          <path
            d="M159.487 22.8557C159.346 22.9012 159.195 22.9041 159.053 22.864C158.91 22.8239 158.783 22.7427 158.687 22.6306C158.591 22.5186 158.531 22.3807 158.514 22.2344C158.497 22.0881 158.523 21.9401 158.591 21.809C158.658 21.6779 158.763 21.5697 158.892 21.4981C159.022 21.4264 159.169 21.3946 159.317 21.4065C159.464 21.4185 159.605 21.4737 159.72 21.5653C159.836 21.6568 159.922 21.7805 159.967 21.9207C160.028 22.1082 160.011 22.3118 159.921 22.4871C159.831 22.6623 159.675 22.7949 159.487 22.8557Z"
            fill="#455A64"
          />
          <path
            d="M159.945 24.2717C159.804 24.317 159.654 24.3198 159.511 24.2797C159.369 24.2396 159.242 24.1584 159.146 24.0464C159.05 23.9345 158.99 23.7967 158.973 23.6506C158.956 23.5045 158.982 23.3565 159.05 23.2255C159.117 23.0945 159.221 22.9862 159.35 22.9144C159.479 22.8426 159.627 22.8105 159.774 22.8222C159.921 22.8338 160.062 22.8887 160.178 22.9798C160.294 23.071 160.38 23.1943 160.426 23.3342C160.456 23.4272 160.468 23.5252 160.46 23.6227C160.452 23.7201 160.425 23.8151 160.38 23.9022C160.336 23.9892 160.274 24.0667 160.2 24.1301C160.125 24.1935 160.038 24.2416 159.945 24.2717Z"
            fill="#455A64"
          />
          <path
            d="M78.286 23.6392C78.1666 24.7783 77.7317 25.862 77.0298 26.7693C76.3279 27.6766 75.3866 28.3719 74.3109 28.7775C73.2352 29.1831 72.0675 29.2832 70.938 29.0665C69.8086 28.8497 68.7618 28.3248 67.9145 27.5502L64.8086 28.004L66.3628 25.3306C66.0074 24.4607 65.8557 23.5216 65.9194 22.5846C65.9831 21.6476 66.2603 20.7374 66.7302 19.9231C67.2 19.1088 67.8501 18.4118 68.6309 17.8851C69.4118 17.3584 70.303 17.0158 71.2367 16.8833C72.1705 16.7509 73.1223 16.832 74.0198 17.1207C74.9173 17.4093 75.737 17.8978 76.4165 18.549C77.0961 19.2003 77.6176 19.9972 77.9415 20.8792C78.2655 21.7612 78.3833 22.7051 78.286 23.6392Z"
            fill="white"
          />
          <path
            d="M78.286 23.6393C78.1692 24.7778 77.7381 25.8619 77.0406 26.7715C76.6998 27.2316 76.2889 27.6358 75.8227 27.9694C75.3666 28.3155 74.8634 28.5952 74.3282 28.8002C73.7927 29.0102 73.23 29.1438 72.6569 29.197C72.3704 29.2226 72.0825 29.2284 71.7951 29.2143C71.5068 29.207 71.2195 29.1771 70.9358 29.1251C69.7912 28.9153 68.7277 28.3924 67.8648 27.6147L67.937 27.6371L64.836 28.1107L64.6094 28.1455L64.7239 27.9471L66.2682 25.2687V25.3753C65.9038 24.4893 65.7489 23.5318 65.8154 22.5768C65.8819 21.6217 66.1681 20.6946 66.6518 19.8672C67.1349 19.0424 67.799 18.337 68.5946 17.8039C69.3888 17.2777 70.2923 16.9375 71.2375 16.8087C72.1826 16.6798 73.1447 16.7657 74.0518 17.0599C74.9492 17.3638 75.767 17.8638 76.4454 18.5231C77.1222 19.1807 77.6398 19.9832 77.9587 20.8697C78.2776 21.7561 78.3895 22.7033 78.286 23.6393ZM78.286 23.6393C78.3867 22.7079 78.271 21.766 77.948 20.8862C77.6249 20.0064 77.1031 19.2123 76.4229 18.5652C75.7427 17.9181 74.9222 17.4353 74.0247 17.1541C73.1273 16.8728 72.177 16.8007 71.2472 16.9433C70.3267 17.079 69.4498 17.4235 68.6842 17.9502C67.9252 18.481 67.2912 19.1698 66.8261 19.9689C66.3682 20.7697 66.0983 21.6633 66.0366 22.5828C65.9759 23.5085 66.1258 24.4359 66.4749 25.2959L66.4974 25.3505L66.4675 25.4026L64.9033 28.0711L64.7937 27.9074L67.9021 27.4734H67.9445L67.9744 27.5007C68.8053 28.2707 69.835 28.7954 70.9483 29.0159C71.2257 29.0722 71.5073 29.1062 71.7902 29.1176C72.0729 29.1375 72.3567 29.1375 72.6395 29.1176C73.2066 29.0721 73.7647 28.9495 74.2983 28.7531C74.8332 28.5592 75.3366 28.2885 75.7928 27.9495C76.2571 27.6186 76.6685 27.2198 77.0132 26.7666C77.7197 25.8614 78.1603 24.7788 78.286 23.6393Z"
            fill="#263238"
          />
          <path
            d="M69.0782 25.8787C69.0734 25.7966 69.0856 25.7144 69.1141 25.6372C69.1425 25.5599 69.1866 25.4894 69.2436 25.4299C69.3006 25.3703 69.3692 25.3231 69.4453 25.2911C69.5214 25.2591 69.6033 25.243 69.6859 25.2438C69.855 25.2438 70.0172 25.3107 70.1368 25.4297C70.2563 25.5488 70.3235 25.7103 70.3235 25.8787C70.3235 26.0471 70.2563 26.2085 70.1368 26.3276C70.0172 26.4467 69.855 26.5136 69.6859 26.5136C69.6033 26.5144 69.5214 26.4983 69.4453 26.4663C69.3692 26.4343 69.3006 26.387 69.2436 26.3275C69.1866 26.268 69.1425 26.1974 69.1141 26.1202C69.0856 26.043 69.0734 25.9608 69.0782 25.8787ZM69.3272 24.413L69.1828 19.4927H70.1791L70.0346 24.413H69.3272Z"
            fill="#1EBEC2"
          />
          <path
            d="M71.4463 25.8787C71.4416 25.7968 71.4537 25.7148 71.482 25.6377C71.5103 25.5607 71.5542 25.4903 71.6109 25.4308C71.6676 25.3713 71.736 25.324 71.8118 25.2918C71.8876 25.2597 71.9692 25.2433 72.0516 25.2438C72.2207 25.2438 72.3829 25.3107 72.5024 25.4297C72.622 25.5488 72.6892 25.7103 72.6892 25.8787C72.6892 26.0471 72.622 26.2085 72.5024 26.3276C72.3829 26.4467 72.2207 26.5136 72.0516 26.5136C71.9692 26.514 71.8876 26.4977 71.8118 26.4655C71.736 26.4334 71.6676 26.3861 71.6109 26.3266C71.5542 26.2671 71.5103 26.1966 71.482 26.1196C71.4537 26.0426 71.4416 25.9606 71.4463 25.8787ZM71.6954 24.413L71.5584 19.4927H72.5547L72.4102 24.413H71.6954Z"
            fill="#1EBEC2"
          />
          <path
            d="M73.8125 25.8787C73.8078 25.7966 73.82 25.7144 73.8484 25.6372C73.8769 25.5599 73.921 25.4894 73.978 25.4299C74.035 25.3703 74.1036 25.3231 74.1797 25.2911C74.2558 25.2591 74.3377 25.243 74.4203 25.2438C74.5894 25.2438 74.7516 25.3107 74.8711 25.4297C74.9907 25.5488 75.0579 25.7103 75.0579 25.8787C75.0579 26.0471 74.9907 26.2085 74.8711 26.3276C74.7516 26.4467 74.5894 26.5136 74.4203 26.5136C74.3377 26.5144 74.2558 26.4983 74.1797 26.4663C74.1036 26.4343 74.035 26.387 73.978 26.3275C73.921 26.268 73.8769 26.1974 73.8484 26.1202C73.82 26.043 73.8078 25.9608 73.8125 25.8787ZM74.0616 24.413L73.9171 19.4927H74.9134L74.7715 24.413H74.0616Z"
            fill="#1EBEC2"
          />
        </svg>