<svg width="145" height="32" viewBox="0 0 145 32" fill="none" xmlns="http://www.w3.org/2000/svg">
<path d="M28.6426 24.302C27.0826 24.302 25.8766 23.852 25.0246 22.952C24.1846 22.064 23.7646 20.816 23.7646 19.208V15.608H26.0506V19.154C26.0506 20.066 26.2606 20.75 26.6806 21.206C27.1006 21.674 27.7546 21.908 28.6426 21.908H29.3626C30.2266 21.908 30.9046 21.68 31.3966 21.224C31.8886 20.768 32.1346 20.138 32.1346 19.334V13.808H34.4206V19.154C34.4206 20.234 34.2106 21.158 33.7906 21.926C33.3706 22.706 32.7766 23.294 32.0086 23.69C31.2526 24.098 30.3706 24.302 29.3626 24.302H28.6426ZM27.4726 13.538V11.486H29.9206V13.538H27.4726ZM40.7131 17.606C40.7731 17.606 40.8151 17.684 40.8391 17.84C40.8751 17.996 40.8931 18.332 40.8931 18.848C40.8931 19.328 40.8751 19.64 40.8391 19.784C40.8151 19.928 40.7731 20 40.7131 20H40.0651C39.0571 20 38.2891 19.712 37.7611 19.136C37.2451 18.548 36.9871 17.714 36.9871 16.634V8.408H39.2911V16.472C39.2911 16.856 39.3631 17.144 39.5071 17.336C39.6631 17.516 39.9031 17.606 40.2271 17.606H40.7131ZM41.1848 17.606C41.5208 17.606 41.7548 17.54 41.8868 17.408C42.0308 17.276 42.1028 17.06 42.1028 16.76V16.256C42.1028 15.092 42.4328 14.174 43.0928 13.502C43.7648 12.818 44.6708 12.476 45.8108 12.476C46.9508 12.476 47.8208 12.806 48.4208 13.466C49.0328 14.114 49.3388 15.05 49.3388 16.274C49.3388 17.45 49.0208 18.368 48.3848 19.028C47.7488 19.676 46.8608 20 45.7208 20C45.1208 20 44.6228 19.928 44.2268 19.784C43.8308 19.628 43.5368 19.412 43.3448 19.136C43.1168 19.436 42.8288 19.658 42.4808 19.802C42.1448 19.934 41.7128 20 41.1848 20H40.7168C40.5968 20 40.5368 19.616 40.5368 18.848C40.5368 18.02 40.5968 17.606 40.7168 17.606H41.1848ZM47.0708 16.274C47.0708 15.266 46.6208 14.762 45.7208 14.762C44.8208 14.762 44.3708 15.266 44.3708 16.274C44.3708 16.706 44.4788 17.042 44.6948 17.282C44.9228 17.51 45.2648 17.624 45.7208 17.624C46.1768 17.624 46.5128 17.516 46.7288 17.3C46.9568 17.072 47.0708 16.73 47.0708 16.274ZM55.637 17.606C55.697 17.606 55.739 17.684 55.763 17.84C55.799 17.996 55.817 18.332 55.817 18.848C55.817 19.328 55.799 19.64 55.763 19.784C55.739 19.928 55.697 20 55.637 20H54.989C53.981 20 53.213 19.712 52.685 19.136C52.169 18.548 51.911 17.714 51.911 16.634V8.408H54.215V16.472C54.215 16.856 54.287 17.144 54.431 17.336C54.587 17.516 54.827 17.606 55.151 17.606H55.637ZM57.5126 9.794L61.9406 6.518L62.6966 7.706L57.5126 11.576V9.794ZM69.3206 17.606C69.8726 17.606 70.2566 17.516 70.4726 17.336C70.7006 17.144 70.8146 16.814 70.8146 16.346C70.8146 15.89 70.7006 15.554 70.4726 15.338C70.2566 15.122 69.8726 15.014 69.3206 15.014H57.5126V12.854L63.2906 8.552L64.5146 10.424L61.1666 12.728H69.4106C70.6466 12.728 71.5646 13.028 72.1646 13.628C72.7766 14.216 73.0826 15.122 73.0826 16.346C73.0826 16.838 73.0466 17.186 72.9746 17.39C73.1786 17.534 73.5626 17.606 74.1266 17.606H74.4866C74.6066 17.606 74.6666 18.02 74.6666 18.848C74.6666 19.616 74.6066 20 74.4866 20H74.1266C73.5986 20 73.1366 19.94 72.7406 19.82C72.3446 19.7 72.0446 19.526 71.8406 19.298C71.2286 19.766 70.3886 20 69.3206 20H55.6406C55.5206 20 55.4606 19.616 55.4606 18.848C55.4606 18.02 55.5206 17.606 55.6406 17.606H69.3206ZM75.8704 17.606C76.2784 17.606 76.5844 17.51 76.7884 17.318C77.0044 17.126 77.1124 16.862 77.1124 16.526V13.808H79.3984V16.526C79.3984 17.246 79.8124 17.606 80.6404 17.606C81.0484 17.606 81.3544 17.51 81.5584 17.318C81.7744 17.126 81.8824 16.862 81.8824 16.526V13.808H84.1684V16.526C84.1684 17.246 84.5524 17.606 85.3204 17.606C86.0884 17.606 86.4724 17.246 86.4724 16.526V13.808H88.7584V16.526C88.7584 17.246 89.0944 17.606 89.7664 17.606H90.4864C90.6064 17.606 90.6664 18.02 90.6664 18.848C90.6664 19.616 90.6064 20 90.4864 20H89.7664C89.1904 20 88.7224 19.934 88.3624 19.802C88.0024 19.658 87.7324 19.436 87.5524 19.136C87.3364 19.436 87.0424 19.658 86.6704 19.802C86.3104 19.934 85.8604 20 85.3204 20C84.6844 20 84.1744 19.922 83.7904 19.766C83.4064 19.598 83.1184 19.358 82.9264 19.046C82.6984 19.358 82.3984 19.598 82.0264 19.766C81.6664 19.922 81.2044 20 80.6404 20C79.9804 20 79.4524 19.922 79.0564 19.766C78.6604 19.598 78.3664 19.358 78.1744 19.046C77.7064 19.682 76.9384 20 75.8704 20H74.4844C74.3644 20 74.3044 19.616 74.3044 18.848C74.3044 18.02 74.3644 17.606 74.4844 17.606H75.8704ZM84.0064 7.058V9.02H81.8464V7.058H84.0064ZM85.4644 9.884V11.936H80.3884V9.884H85.4644ZM93.7745 17.606C94.0745 17.606 94.3145 17.528 94.4945 17.372C94.6745 17.204 94.7645 16.976 94.7645 16.688V13.808H97.0685V16.616C97.0685 17.276 97.4045 17.606 98.0765 17.606H98.7425C98.8625 17.606 98.9225 18.008 98.9225 18.812C98.9225 19.604 98.8625 20 98.7425 20H97.9685C96.9365 20 96.2525 19.712 95.9165 19.136C95.7005 19.436 95.4125 19.658 95.0525 19.802C94.7045 19.934 94.2785 20 93.7745 20H90.4805C90.3605 20 90.3005 19.616 90.3005 18.848C90.3005 18.02 90.3605 17.606 90.4805 17.606H93.7745ZM95.1785 21.872V23.924H90.1025V21.872H95.1785ZM103.8 16.796C103.8 17.792 103.5 18.578 102.9 19.154C102.312 19.718 101.514 20 100.506 20H98.7422C98.6222 20 98.5622 19.616 98.5622 18.848C98.5622 18.02 98.6222 17.606 98.7422 17.606H100.506C100.806 17.606 101.046 17.528 101.226 17.372C101.418 17.204 101.514 16.976 101.514 16.688V13.808H103.8V16.796ZM102.72 21.872V23.924H97.6442V21.872H102.72ZM99.1562 26.75V24.788H101.208V26.75H99.1562Z" fill="#147C55"/>
<g clip-path="url(#clip0_2108_4062)">
<g clip-path="url(#clip1_2108_4062)">
<path d="M144.776 19.5606C144.628 19.9374 144.395 20.2751 144.096 20.5473L144.056 20.5872C143.539 21.0713 142.857 21.3385 142.149 21.3339H138.336C138.109 21.3335 137.898 21.2181 137.776 21.0272L137.136 20.0006L134.442 15.694C134.338 15.5419 134.308 15.3504 134.362 15.174C134.403 14.9927 134.52 14.8374 134.682 14.7473L140.682 11.414C141.007 11.2434 141.408 11.3614 141.589 11.6807L144.682 17.2006C145.069 17.9327 145.103 18.8003 144.776 19.5606Z" fill="url(#paint0_linear_2108_4062)"/>
<path d="M130.414 5.45376L129.854 6.24043L126.881 10.387C126.756 10.5649 126.551 10.6696 126.334 10.667C126.223 10.6659 126.113 10.6384 126.014 10.587L118.681 6.58711C118.51 6.49674 118.388 6.33574 118.348 6.14712C118.306 5.95612 118.349 5.75625 118.468 5.60044L121.321 1.80051C121.435 1.64514 121.56 1.49814 121.694 1.36052C122.497 0.51322 123.607 0.0233538 124.774 0.000541706C124.837 -0.00164576 124.899 0.00279167 124.961 0.013854C126.387 0.0568532 127.708 0.774341 128.521 1.94713L130.414 4.69377C130.573 4.92233 130.573 5.22526 130.414 5.45376Z" fill="url(#paint1_linear_2108_4062)"/>
<path d="M126.121 18.4938C125.918 18.6803 125.622 18.7227 125.375 18.6005L123.295 17.5605L122.081 20.0005L121.601 20.9605C121.486 21.1868 121.255 21.3306 121.001 21.3338H115.855C115.14 21.3424 114.45 21.0694 113.935 20.5738L113.908 20.5471C113.601 20.2653 113.36 19.9194 113.201 19.5338C112.997 19.0121 112.95 18.4417 113.068 17.8938C113.12 17.6582 113.201 17.4298 113.308 17.2138L115.521 12.8006L113.201 10.4673C113.004 10.2833 112.945 9.99397 113.055 9.74729C113.157 9.49836 113.399 9.3353 113.668 9.33398H122.335C122.604 9.3353 122.846 9.49836 122.948 9.74729L126.281 17.7471C126.385 18.0055 126.321 18.3006 126.121 18.4938Z" fill="url(#paint2_linear_2108_4062)"/>
<path d="M126.334 20.6658V28.6656C126.334 29.0338 126.035 29.3323 125.667 29.3323H122.427C120.897 29.3359 119.464 28.5821 118.601 27.319C118.414 27.0524 118.254 26.8124 118.107 26.599L118.054 26.5457C118.067 26.5457 117.801 26.1724 117.547 25.7991C117.427 25.6391 117.334 25.4791 117.241 25.3591C116.894 24.8524 116.707 24.5991 116.787 24.7058C116.721 24.5991 116.654 24.5191 116.627 24.4658L116.614 24.4525C116.561 24.3725 116.543 24.3458 116.541 24.3392L116.521 24.3192L116.507 24.2925C115.574 22.9458 114.707 21.6925 113.934 20.5725L113.907 20.5458C113.654 20.1992 113.427 19.8525 113.201 19.5325C112.996 19.0109 112.95 18.4404 113.067 17.8926L114.867 19.6125C115.131 19.8687 115.487 20.0081 115.854 19.9992H125.667C126.035 19.9992 126.334 20.2976 126.334 20.6658Z" fill="url(#paint3_linear_2108_4062)"/>
<path d="M140.948 3.5866L137.615 11.5865C137.513 11.8354 137.271 11.9985 137.002 11.9998C136.961 12.002 136.921 11.9975 136.882 11.9865L129.549 10.6532C129.269 10.596 129.052 10.3741 129.002 10.0932C128.962 9.80543 129.113 9.52493 129.375 9.39987L131.348 8.4132L129.855 6.23993L127.429 2.6933C126.842 1.85994 125.888 1.36289 124.869 1.36001H121.695C122.355 0.662089 123.227 0.202535 124.175 0.0533502L124.775 0.0133509H124.962L133.575 3.86309e-05C134.693 -0.00533627 135.74 0.550466 136.362 1.48001L137.895 3.79997L140.042 2.7333C140.289 2.61112 140.585 2.65349 140.788 2.83999C140.989 3.03299 141.052 3.32842 140.948 3.5866Z" fill="url(#paint4_linear_2108_4062)"/>
<path d="M144.76 19.5863C144.76 19.5863 144.622 19.9506 144.471 20.1015C144.32 20.2525 144.245 20.4034 144.245 20.4034L144.08 20.573L144.04 20.613L139.4 27.3462C138.531 28.6099 137.094 29.3633 135.56 29.3594H134.32V31.3594C134.318 31.6355 134.15 31.8829 133.893 31.9861C133.816 32.0123 133.735 32.0258 133.654 32.0261C133.464 32.0275 133.283 31.9445 133.16 31.7994L127.827 25.7995C127.615 25.5699 127.599 25.2218 127.787 24.9728L133.12 17.6396C133.284 17.4049 133.58 17.3026 133.853 17.3863C134.133 17.4741 134.322 17.7337 134.32 18.0263V20.0263H142.133C142.501 20.0352 142.856 19.8959 143.12 19.6396L144.92 17.9196C145.043 18.4782 145 19.0449 144.76 19.5863Z" fill="url(#paint5_linear_2108_4062)"/>
</g>
</g>
<defs>
<linearGradient id="paint0_linear_2108_4062" x1="137.77" y1="13.2834" x2="141.996" y2="20.6796" gradientUnits="userSpaceOnUse">
<stop stop-color="#32B282"/>
<stop offset="1" stop-color="#0B6B47"/>
</linearGradient>
<linearGradient id="paint1_linear_2108_4062" x1="128.108" y1="-5.05049e-07" x2="122.976" y2="9.20755" gradientUnits="userSpaceOnUse">
<stop stop-color="#0B6B47"/>
<stop offset="1" stop-color="#32B282"/>
</linearGradient>
<linearGradient id="paint2_linear_2108_4062" x1="123.203" y1="9.35875" x2="116.184" y2="21.2833" gradientUnits="userSpaceOnUse">
<stop stop-color="#32B282"/>
<stop offset="1" stop-color="#0B6B47"/>
</linearGradient>
<linearGradient id="paint3_linear_2108_4062" x1="126.296" y1="24.7536" x2="116.032" y2="20.2253" gradientUnits="userSpaceOnUse">
<stop stop-color="#0B6B47"/>
<stop offset="1" stop-color="#32B282"/>
</linearGradient>
<linearGradient id="paint4_linear_2108_4062" x1="125.09" y1="-0.000516103" x2="137.92" y2="12.075" gradientUnits="userSpaceOnUse">
<stop stop-color="#32B282"/>
<stop offset="1" stop-color="#0B6B47"/>
</linearGradient>
<linearGradient id="paint5_linear_2108_4062" x1="144.17" y1="20.3279" x2="128.547" y2="24.6298" gradientUnits="userSpaceOnUse">
<stop stop-color="#32B282"/>
<stop offset="1" stop-color="#0B6B47"/>
</linearGradient>
<clipPath id="clip0_2108_4062">
<rect width="32" height="32" fill="white" transform="translate(113)"/>
</clipPath>
<clipPath id="clip1_2108_4062">
<rect width="32" height="32" fill="white" transform="translate(113)"/>
</clipPath>
</defs>
</svg>
