<svg width="20" height="18" viewBox="0 0 20 18" fill="none" xmlns="http://www.w3.org/2000/svg">
<path d="M15 0.5H5C2 0.5 0 2 0 5.5V12.5C0 16 2 17.5 5 17.5H15C18 17.5 20 16 20 12.5V5.5C20 2 18 0.5 15 0.5ZM4.25 11.5C4.25 11.91 3.91 12.25 3.5 12.25C3.09 12.25 2.75 11.91 2.75 11.5V6.5C2.75 6.09 3.09 5.75 3.5 5.75C3.91 5.75 4.25 6.09 4.25 6.5V11.5ZM10 12C8.34 12 7 10.66 7 9C7 7.34 8.34 6 10 6C11.66 6 13 7.34 13 9C13 10.66 11.66 12 10 12ZM17.25 11.5C17.25 11.91 16.91 12.25 16.5 12.25C16.09 12.25 15.75 11.91 15.75 11.5V6.5C15.75 6.09 16.09 5.75 16.5 5.75C16.91 5.75 17.25 6.09 17.25 6.5V11.5Z" fill="white"/>
</svg>
