<svg width="24" height="24" viewBox="0 0 24 24" fill="none" xmlns="http://www.w3.org/2000/svg">
<path d="M16.8711 19.0605H8.87109C5.70109 19.0605 3.12109 16.4805 3.12109 13.3105C3.12109 10.1405 5.70109 7.56055 8.87109 7.56055H19.8711C20.2811 7.56055 20.6211 7.90055 20.6211 8.31055C20.6211 8.72055 20.2811 9.06055 19.8711 9.06055H8.87109C6.53109 9.06055 4.62109 10.9705 4.62109 13.3105C4.62109 15.6505 6.53109 17.5605 8.87109 17.5605H16.8711C17.2811 17.5605 17.6211 17.9005 17.6211 18.3105C17.6211 18.7205 17.2911 19.0605 16.8711 19.0605Z" />
<path d="M17.5717 11.5609C17.3817 11.5609 17.1917 11.4909 17.0417 11.3409C16.7517 11.0509 16.7517 10.5709 17.0417 10.2809L19.0717 8.25086L17.0417 6.22086C16.7517 5.93086 16.7517 5.45086 17.0417 5.16086C17.3317 4.87086 17.8117 4.87086 18.1017 5.16086L20.6617 7.72086C20.9517 8.01086 20.9517 8.49086 20.6617 8.78086L18.1017 11.3409C17.9517 11.4909 17.7617 11.5609 17.5717 11.5609Z" />
</svg>
